<svg width="140" height="76" viewBox="0 0 140 76" fill="none" xmlns="http://www.w3.org/2000/svg">
<path d="M138 75.2649L102.5 46.799L67 18.333" fill="#03045E"/>
<path d="M138 75.2649L102.5 46.799L67 18.333" fill="black" fill-opacity="0.2"/>
<path d="M138 75.2649L102.5 46.799L67 18.333" stroke="#03045E"/>
<path d="M138 75.2649L102.5 46.799L67 18.333" stroke="black" stroke-opacity="0.2"/>
<path d="M15.1538 4.24367V3.30617H21.6992V4.24367H18.9549V12.0334H17.8981V4.24367H15.1538ZM23.1939 12.0334V5.48799H24.1996V12.0334H23.1939ZM23.7053 4.39708C23.5092 4.39708 23.3402 4.33032 23.1982 4.1968C23.0589 4.06328 22.9893 3.90277 22.9893 3.71527C22.9893 3.52777 23.0589 3.36725 23.1982 3.23373C23.3402 3.10021 23.5092 3.03345 23.7053 3.03345C23.9013 3.03345 24.0689 3.10021 24.2081 3.23373C24.3501 3.36725 24.4212 3.52777 24.4212 3.71527C24.4212 3.90277 24.3501 4.06328 24.2081 4.1968C24.0689 4.33032 23.9013 4.39708 23.7053 4.39708ZM27.0472 3.30617V12.0334H26.0415V3.30617H27.0472ZM29.8949 3.30617V12.0334H28.8892V3.30617H29.8949ZM34.3789 14.6244C33.8931 14.6244 33.4755 14.5619 33.1261 14.4369C32.7766 14.3147 32.4854 14.1528 32.2525 13.9511C32.0224 13.7522 31.8391 13.5391 31.7028 13.3119L32.5039 12.7494C32.5948 12.8687 32.7099 13.005 32.8491 13.1584C32.9883 13.3147 33.1786 13.4496 33.4201 13.5633C33.6644 13.6798 33.984 13.738 34.3789 13.738C34.9073 13.738 35.3434 13.6102 35.6871 13.3545C36.0309 13.0988 36.2028 12.6982 36.2028 12.1528V10.8232H36.1175C36.0437 10.9425 35.9386 11.0903 35.8022 11.2664C35.6687 11.4397 35.4755 11.5945 35.2227 11.7309C34.9727 11.8644 34.6346 11.9312 34.2085 11.9312C33.68 11.9312 33.2056 11.8062 32.7852 11.5562C32.3675 11.3062 32.0366 10.9425 31.7923 10.4653C31.5508 9.98799 31.43 9.40845 31.43 8.72663C31.43 8.05617 31.5479 7.47237 31.7837 6.97521C32.0195 6.47521 32.3477 6.08884 32.7681 5.81612C33.1886 5.54055 33.6744 5.40277 34.2255 5.40277C34.6516 5.40277 34.9897 5.47379 35.2397 5.61583C35.4925 5.75504 35.6857 5.91413 35.8192 6.09311C35.9556 6.26924 36.0607 6.41413 36.1346 6.52777H36.2369V5.48799H37.2085V12.2209C37.2085 12.7834 37.0806 13.2408 36.8249 13.5931C36.5721 13.9482 36.2312 14.2082 35.8022 14.3729C35.3761 14.5405 34.9016 14.6244 34.3789 14.6244ZM34.3448 11.0278C34.7482 11.0278 35.0891 10.9354 35.3675 10.7508C35.646 10.5661 35.8576 10.3005 36.0025 9.9539C36.1474 9.60731 36.2198 9.19254 36.2198 8.70958C36.2198 8.23799 36.1488 7.8218 36.0067 7.461C35.8647 7.10021 35.6545 6.81754 35.3761 6.61299C35.0977 6.40845 34.7539 6.30617 34.3448 6.30617C33.9187 6.30617 33.5636 6.41413 33.2795 6.63004C32.9982 6.84595 32.7866 7.13572 32.6445 7.49936C32.5053 7.86299 32.4357 8.2664 32.4357 8.70958C32.4357 9.16413 32.5067 9.56612 32.6488 9.91555C32.7937 10.2621 33.0067 10.5349 33.288 10.7337C33.5721 10.9298 33.9244 11.0278 34.3448 11.0278ZM40.9755 12.1869C40.5607 12.1869 40.1843 12.1087 39.8462 11.9525C39.5082 11.7934 39.2397 11.5647 39.0408 11.2664C38.842 10.9653 38.7425 10.6016 38.7425 10.1755C38.7425 9.80049 38.8164 9.49652 38.9641 9.26356C39.1119 9.02777 39.3093 8.84311 39.5565 8.70958C39.8036 8.57606 40.0763 8.47663 40.3746 8.41129C40.6758 8.34311 40.9783 8.28913 41.2823 8.24936C41.68 8.19822 42.0025 8.15987 42.2496 8.1343C42.4996 8.10589 42.6815 8.05902 42.7951 7.99367C42.9116 7.92833 42.9698 7.8147 42.9698 7.65277V7.61867C42.9698 7.19822 42.8548 6.87152 42.6246 6.63856C42.3974 6.40561 42.0522 6.28913 41.5891 6.28913C41.109 6.28913 40.7326 6.39424 40.4599 6.60447C40.1871 6.8147 39.9954 7.03913 39.8846 7.27777L38.93 6.93686C39.1005 6.53913 39.3278 6.22947 39.6119 6.00788C39.8988 5.78345 40.2113 5.6272 40.5494 5.53913C40.8903 5.44822 41.2255 5.40277 41.555 5.40277C41.7653 5.40277 42.0067 5.42833 42.2795 5.47947C42.555 5.52777 42.8207 5.62862 43.0763 5.78203C43.3349 5.93544 43.5494 6.16697 43.7198 6.47663C43.8903 6.78629 43.9755 7.20106 43.9755 7.72095V12.0334H42.9698V11.1471H42.9187C42.8505 11.2891 42.7369 11.4411 42.5778 11.603C42.4187 11.765 42.207 11.9028 41.9428 12.0164C41.6786 12.13 41.3562 12.1869 40.9755 12.1869ZM41.1289 11.2834C41.5266 11.2834 41.8619 11.2053 42.1346 11.0491C42.4102 10.8928 42.6175 10.6911 42.7567 10.444C42.8988 10.1968 42.9698 9.93686 42.9698 9.66413V8.74367C42.9272 8.79481 42.8335 8.84169 42.6886 8.8843C42.5465 8.92407 42.3817 8.95958 42.1942 8.99083C42.0096 9.01924 41.8292 9.04481 41.6531 9.06754C41.4798 9.08742 41.3391 9.10447 41.2312 9.11867C40.9698 9.15277 40.7255 9.20816 40.4982 9.28487C40.2738 9.35873 40.092 9.47095 39.9528 9.62152C39.8164 9.76924 39.7482 9.97095 39.7482 10.2266C39.7482 10.5761 39.8775 10.8403 40.136 11.0192C40.3974 11.1954 40.7283 11.2834 41.1289 11.2834ZM40.396 4.39708C40.217 4.39708 40.0579 4.3289 39.9187 4.19254C39.7823 4.05333 39.7141 3.89424 39.7141 3.71527C39.7141 3.51924 39.7823 3.35731 39.9187 3.22947C40.0579 3.09879 40.217 3.03345 40.396 3.03345C40.592 3.03345 40.7539 3.09879 40.8817 3.22947C41.0124 3.35731 41.0778 3.51924 41.0778 3.71527C41.0778 3.89424 41.0124 4.05333 40.8817 4.19254C40.7539 4.3289 40.592 4.39708 40.396 4.39708ZM42.8505 4.39708C42.6715 4.39708 42.5124 4.3289 42.3732 4.19254C42.2369 4.05333 42.1687 3.89424 42.1687 3.71527C42.1687 3.51924 42.2369 3.35731 42.3732 3.22947C42.5124 3.09879 42.6715 3.03345 42.8505 3.03345C43.0465 3.03345 43.2085 3.09879 43.3363 3.22947C43.467 3.35731 43.5323 3.51924 43.5323 3.71527C43.5323 3.89424 43.467 4.05333 43.3363 4.19254C43.2085 4.3289 43.0465 4.39708 42.8505 4.39708ZM46.8168 8.09595V12.0334H45.8111V5.48799H46.7827V6.51072H46.8679C47.0213 6.17833 47.2543 5.91129 47.5668 5.70958C47.8793 5.50504 48.2827 5.40277 48.777 5.40277C49.2202 5.40277 49.608 5.49367 49.9403 5.67549C50.2727 5.85447 50.5313 6.1272 50.7159 6.49367C50.9006 6.85731 50.9929 7.31754 50.9929 7.87436V12.0334H49.9872V7.94254C49.9872 7.42833 49.8537 7.02777 49.5866 6.74083C49.3196 6.45106 48.9531 6.30617 48.4872 6.30617C48.1662 6.30617 47.8793 6.37578 47.6264 6.51498C47.3764 6.65419 47.179 6.85731 47.0341 7.12436C46.8892 7.3914 46.8168 7.71527 46.8168 8.09595ZM55.4727 14.6244C54.9869 14.6244 54.5692 14.5619 54.2198 14.4369C53.8704 14.3147 53.5792 14.1528 53.3462 13.9511C53.1161 13.7522 52.9329 13.5391 52.7965 13.3119L53.5977 12.7494C53.6886 12.8687 53.8036 13.005 53.9428 13.1584C54.082 13.3147 54.2724 13.4496 54.5138 13.5633C54.7582 13.6798 55.0778 13.738 55.4727 13.738C56.0011 13.738 56.4371 13.6102 56.7809 13.3545C57.1246 13.0988 57.2965 12.6982 57.2965 12.1528V10.8232H57.2113C57.1374 10.9425 57.0323 11.0903 56.896 11.2664C56.7624 11.4397 56.5692 11.5945 56.3164 11.7309C56.0664 11.8644 55.7283 11.9312 55.3022 11.9312C54.7738 11.9312 54.2994 11.8062 53.8789 11.5562C53.4613 11.3062 53.1303 10.9425 52.886 10.4653C52.6445 9.98799 52.5238 9.40845 52.5238 8.72663C52.5238 8.05617 52.6417 7.47237 52.8775 6.97521C53.1133 6.47521 53.4414 6.08884 53.8619 5.81612C54.2823 5.54055 54.7681 5.40277 55.3192 5.40277C55.7454 5.40277 56.0835 5.47379 56.3335 5.61583C56.5863 5.75504 56.7795 5.91413 56.913 6.09311C57.0494 6.26924 57.1545 6.41413 57.2283 6.52777H57.3306V5.48799H58.3022V12.2209C58.3022 12.7834 58.1744 13.2408 57.9187 13.5931C57.6658 13.9482 57.3249 14.2082 56.896 14.3729C56.4698 14.5405 55.9954 14.6244 55.4727 14.6244ZM55.4386 11.0278C55.842 11.0278 56.1829 10.9354 56.4613 10.7508C56.7397 10.5661 56.9513 10.3005 57.0962 9.9539C57.2411 9.60731 57.3136 9.19254 57.3136 8.70958C57.3136 8.23799 57.2425 7.8218 57.1005 7.461C56.9585 7.10021 56.7482 6.81754 56.4698 6.61299C56.1914 6.40845 55.8477 6.30617 55.4386 6.30617C55.0124 6.30617 54.6573 6.41413 54.3732 6.63004C54.092 6.84595 53.8803 7.13572 53.7383 7.49936C53.5991 7.86299 53.5295 8.2664 53.5295 8.70958C53.5295 9.16413 53.6005 9.56612 53.7425 9.91555C53.8874 10.2621 54.1005 10.5349 54.3817 10.7337C54.6658 10.9298 55.0181 11.0278 55.4386 11.0278ZM61.1488 3.30617V12.0334H60.1431V3.30617H61.1488ZM62.9908 12.0334V5.48799H63.9964V12.0334H62.9908ZM63.5021 4.39708C63.3061 4.39708 63.1371 4.33032 62.995 4.1968C62.8558 4.06328 62.7862 3.90277 62.7862 3.71527C62.7862 3.52777 62.8558 3.36725 62.995 3.23373C63.1371 3.10021 63.3061 3.03345 63.5021 3.03345C63.6982 3.03345 63.8658 3.10021 64.005 3.23373C64.147 3.36725 64.218 3.52777 64.218 3.71527C64.218 3.90277 64.147 4.06328 64.005 4.1968C63.8658 4.33032 63.6982 4.39708 63.5021 4.39708ZM68.4805 14.6244C67.9947 14.6244 67.5771 14.5619 67.2276 14.4369C66.8782 14.3147 66.587 14.1528 66.354 13.9511C66.1239 13.7522 65.9407 13.5391 65.8043 13.3119L66.6055 12.7494C66.6964 12.8687 66.8114 13.005 66.9506 13.1584C67.0898 13.3147 67.2802 13.4496 67.5217 13.5633C67.766 13.6798 68.0856 13.738 68.4805 13.738C69.0089 13.738 69.445 13.6102 69.7887 13.3545C70.1325 13.0988 70.3043 12.6982 70.3043 12.1528V10.8232H70.2191C70.1452 10.9425 70.0401 11.0903 69.9038 11.2664C69.7702 11.4397 69.5771 11.5945 69.3242 11.7309C69.0742 11.8644 68.7362 11.9312 68.31 11.9312C67.7816 11.9312 67.3072 11.8062 66.8867 11.5562C66.4691 11.3062 66.1381 10.9425 65.8938 10.4653C65.6523 9.98799 65.5316 9.40845 65.5316 8.72663C65.5316 8.05617 65.6495 7.47237 65.8853 6.97521C66.1211 6.47521 66.4492 6.08884 66.8697 5.81612C67.2901 5.54055 67.7759 5.40277 68.3271 5.40277C68.7532 5.40277 69.0913 5.47379 69.3413 5.61583C69.5941 5.75504 69.7873 5.91413 69.9208 6.09311C70.0572 6.26924 70.1623 6.41413 70.2362 6.52777H70.3384V5.48799H71.31V12.2209C71.31 12.7834 71.1822 13.2408 70.9265 13.5931C70.6737 13.9482 70.3327 14.2082 69.9038 14.3729C69.4776 14.5405 69.0032 14.6244 68.4805 14.6244ZM68.4464 11.0278C68.8498 11.0278 69.1907 10.9354 69.4691 10.7508C69.7475 10.5661 69.9592 10.3005 70.104 9.9539C70.2489 9.60731 70.3214 9.19254 70.3214 8.70958C70.3214 8.23799 70.2504 7.8218 70.1083 7.461C69.9663 7.10021 69.756 6.81754 69.4776 6.61299C69.1992 6.40845 68.8555 6.30617 68.4464 6.30617C68.0202 6.30617 67.6651 6.41413 67.381 6.63004C67.0998 6.84595 66.8881 7.13572 66.7461 7.49936C66.6069 7.86299 66.5373 8.2664 66.5373 8.70958C66.5373 9.16413 66.6083 9.56612 66.7504 9.91555C66.8952 10.2621 67.1083 10.5349 67.3896 10.7337C67.6737 10.9298 68.0259 11.0278 68.4464 11.0278ZM79.4407 5.48799V6.34027H75.9123V5.48799H79.4407ZM76.9691 12.0334V4.58458C76.9691 4.20958 77.0572 3.89708 77.2333 3.64708C77.4094 3.39708 77.6381 3.20958 77.9194 3.08458C78.2006 2.95958 78.4975 2.89708 78.81 2.89708C79.0572 2.89708 79.2589 2.91697 79.4151 2.95674C79.5714 2.99652 79.6879 3.03345 79.7646 3.06754L79.4748 3.93686C79.4237 3.91981 79.3526 3.8985 79.2617 3.87294C79.1737 3.84737 79.0572 3.83458 78.9123 3.83458C78.5799 3.83458 78.3398 3.91839 78.1921 4.086C78.0472 4.25362 77.9748 4.49936 77.9748 4.82322V12.0334H76.9691ZM83.2397 12.1698C82.6488 12.1698 82.1303 12.0292 81.6843 11.7479C81.2411 11.4667 80.8945 11.0732 80.6445 10.5675C80.3974 10.0619 80.2738 9.47095 80.2738 8.79481C80.2738 8.11299 80.3974 7.51782 80.6445 7.0093C80.8945 6.50078 81.2411 6.10589 81.6843 5.82464C82.1303 5.54339 82.6488 5.40277 83.2397 5.40277C83.8306 5.40277 84.3477 5.54339 84.7908 5.82464C85.2369 6.10589 85.5835 6.50078 85.8306 7.0093C86.0806 7.51782 86.2056 8.11299 86.2056 8.79481C86.2056 9.47095 86.0806 10.0619 85.8306 10.5675C85.5835 11.0732 85.2369 11.4667 84.7908 11.7479C84.3477 12.0292 83.8306 12.1698 83.2397 12.1698ZM83.2397 11.2664C83.6886 11.2664 84.0579 11.1513 84.3477 10.9212C84.6374 10.6911 84.8519 10.3886 84.9911 10.0136C85.1303 9.63856 85.1999 9.23231 85.1999 8.79481C85.1999 8.35731 85.1303 7.94964 84.9911 7.5718C84.8519 7.19396 84.6374 6.88856 84.3477 6.65561C84.0579 6.42265 83.6886 6.30617 83.2397 6.30617C82.7908 6.30617 82.4215 6.42265 82.1317 6.65561C81.842 6.88856 81.6275 7.19396 81.4883 7.5718C81.3491 7.94964 81.2795 8.35731 81.2795 8.79481C81.2795 9.23231 81.3491 9.63856 81.4883 10.0136C81.6275 10.3886 81.842 10.6911 82.1317 10.9212C82.4215 11.1513 82.7908 11.2664 83.2397 11.2664ZM82.0124 4.39708C81.8335 4.39708 81.6744 4.3289 81.5352 4.19254C81.3988 4.05333 81.3306 3.89424 81.3306 3.71527C81.3306 3.51924 81.3988 3.35731 81.5352 3.22947C81.6744 3.09879 81.8335 3.03345 82.0124 3.03345C82.2085 3.03345 82.3704 3.09879 82.4982 3.22947C82.6289 3.35731 82.6942 3.51924 82.6942 3.71527C82.6942 3.89424 82.6289 4.05333 82.4982 4.19254C82.3704 4.3289 82.2085 4.39708 82.0124 4.39708ZM84.467 4.39708C84.288 4.39708 84.1289 4.3289 83.9897 4.19254C83.8533 4.05333 83.7852 3.89424 83.7852 3.71527C83.7852 3.51924 83.8533 3.35731 83.9897 3.22947C84.1289 3.09879 84.288 3.03345 84.467 3.03345C84.663 3.03345 84.8249 3.09879 84.9528 3.22947C85.0835 3.35731 85.1488 3.51924 85.1488 3.71527C85.1488 3.89424 85.0835 4.05333 84.9528 4.19254C84.8249 4.3289 84.663 4.39708 84.467 4.39708ZM87.7408 12.0334V5.48799H88.7124V6.47663H88.7805C88.8999 6.15277 89.1158 5.88998 89.4283 5.68828C89.7408 5.48657 90.093 5.38572 90.4851 5.38572C90.5589 5.38572 90.6513 5.38714 90.7621 5.38998C90.8729 5.39282 90.9567 5.39708 91.0135 5.40277V6.42549C90.9794 6.41697 90.9013 6.40419 90.7791 6.38714C90.6598 6.36725 90.5334 6.35731 90.3999 6.35731C90.0817 6.35731 89.7976 6.42407 89.5476 6.55759C89.3004 6.68828 89.1044 6.87009 88.9595 7.10305C88.8175 7.33316 88.7464 7.59595 88.7464 7.8914V12.0334H87.7408ZM95.717 12.0334V3.30617H96.7227V6.52777H96.8079C96.8817 6.41413 96.984 6.26924 97.1147 6.09311C97.2482 5.91413 97.4386 5.75504 97.6857 5.61583C97.9357 5.47379 98.2738 5.40277 98.6999 5.40277C99.2511 5.40277 99.7369 5.54055 100.157 5.81612C100.578 6.09169 100.906 6.48231 101.142 6.98799C101.377 7.49367 101.495 8.09027 101.495 8.77777C101.495 9.47095 101.377 10.0718 101.142 10.5803C100.906 11.086 100.579 11.478 100.162 11.7565C99.744 12.032 99.2624 12.1698 98.717 12.1698C98.2965 12.1698 97.9599 12.1002 97.707 11.961C97.4542 11.819 97.2596 11.6584 97.1232 11.4795C96.9869 11.2977 96.8817 11.1471 96.8079 11.0278H96.6886V12.0334H95.717ZM96.7056 8.76072C96.7056 9.25504 96.7781 9.69112 96.9229 10.069C97.0678 10.444 97.2795 10.738 97.5579 10.9511C97.8363 11.1613 98.1772 11.2664 98.5806 11.2664C99.0011 11.2664 99.3519 11.1556 99.6332 10.934C99.9173 10.7096 100.13 10.4084 100.272 10.0306C100.417 9.64992 100.49 9.22663 100.49 8.76072C100.49 8.30049 100.419 7.88572 100.277 7.5164C100.137 7.14424 99.9258 6.85021 99.6417 6.6343C99.3604 6.41555 99.0067 6.30617 98.5806 6.30617C98.1715 6.30617 97.8278 6.40987 97.5494 6.61725C97.271 6.8218 97.0607 7.10873 96.9187 7.47805C96.7766 7.84453 96.7056 8.27208 96.7056 8.76072ZM105.693 12.1698C105.102 12.1698 104.583 12.0292 104.137 11.7479C103.694 11.4667 103.348 11.0732 103.098 10.5675C102.85 10.0619 102.727 9.47095 102.727 8.79481C102.727 8.11299 102.85 7.51782 103.098 7.0093C103.348 6.50078 103.694 6.10589 104.137 5.82464C104.583 5.54339 105.102 5.40277 105.693 5.40277C106.284 5.40277 106.801 5.54339 107.244 5.82464C107.69 6.10589 108.037 6.50078 108.284 7.0093C108.534 7.51782 108.659 8.11299 108.659 8.79481C108.659 9.47095 108.534 10.0619 108.284 10.5675C108.037 11.0732 107.69 11.4667 107.244 11.7479C106.801 12.0292 106.284 12.1698 105.693 12.1698ZM105.693 11.2664C106.142 11.2664 106.511 11.1513 106.801 10.9212C107.091 10.6911 107.305 10.3886 107.444 10.0136C107.583 9.63856 107.653 9.23231 107.653 8.79481C107.653 8.35731 107.583 7.94964 107.444 7.5718C107.305 7.19396 107.091 6.88856 106.801 6.65561C106.511 6.42265 106.142 6.30617 105.693 6.30617C105.244 6.30617 104.875 6.42265 104.585 6.65561C104.295 6.88856 104.081 7.19396 103.941 7.5718C103.802 7.94964 103.733 8.35731 103.733 8.79481C103.733 9.23231 103.802 9.63856 103.941 10.0136C104.081 10.3886 104.295 10.6911 104.585 10.9212C104.875 11.1513 105.244 11.2664 105.693 11.2664ZM111.131 9.64708L111.114 8.40277H111.319L114.183 5.48799H115.427L112.376 8.57322H112.29L111.131 9.64708ZM110.194 12.0334V3.30617H111.2V12.0334H110.194ZM114.353 12.0334L111.796 8.79481L112.512 8.09595L115.631 12.0334H114.353ZM117.727 8.09595V12.0334H116.721V5.48799H117.693V6.51072H117.778C117.931 6.17833 118.164 5.91129 118.477 5.70958C118.789 5.50504 119.193 5.40277 119.687 5.40277C120.13 5.40277 120.518 5.49367 120.85 5.67549C121.183 5.85447 121.441 6.1272 121.626 6.49367C121.811 6.85731 121.903 7.31754 121.903 7.87436V12.0334H120.897V7.94254C120.897 7.42833 120.764 7.02777 120.497 6.74083C120.23 6.45106 119.863 6.30617 119.397 6.30617C119.076 6.30617 118.789 6.37578 118.537 6.51498C118.287 6.65419 118.089 6.85731 117.944 7.12436C117.799 7.3914 117.727 7.71527 117.727 8.09595ZM123.741 12.0334V5.48799H124.746V12.0334H123.741ZM124.252 4.39708C124.056 4.39708 123.887 4.33032 123.745 4.1968C123.606 4.06328 123.536 3.90277 123.536 3.71527C123.536 3.52777 123.606 3.36725 123.745 3.23373C123.887 3.10021 124.056 3.03345 124.252 3.03345C124.448 3.03345 124.616 3.10021 124.755 3.23373C124.897 3.36725 124.968 3.52777 124.968 3.71527C124.968 3.90277 124.897 4.06328 124.755 4.1968C124.616 4.33032 124.448 4.39708 124.252 4.39708ZM127.594 8.09595V12.0334H126.588V5.48799H127.56V6.51072H127.645C127.799 6.17833 128.032 5.91129 128.344 5.70958C128.657 5.50504 129.06 5.40277 129.554 5.40277C129.998 5.40277 130.385 5.49367 130.718 5.67549C131.05 5.85447 131.309 6.1272 131.493 6.49367C131.678 6.85731 131.77 7.31754 131.77 7.87436V12.0334H130.765V7.94254C130.765 7.42833 130.631 7.02777 130.364 6.74083C130.097 6.45106 129.73 6.30617 129.265 6.30617C128.944 6.30617 128.657 6.37578 128.404 6.51498C128.154 6.65419 127.956 6.85731 127.811 7.12436C127.667 7.3914 127.594 7.71527 127.594 8.09595ZM136.25 14.6244C135.764 14.6244 135.347 14.5619 134.997 14.4369C134.648 14.3147 134.357 14.1528 134.124 13.9511C133.893 13.7522 133.71 13.5391 133.574 13.3119L134.375 12.7494C134.466 12.8687 134.581 13.005 134.72 13.1584C134.859 13.3147 135.05 13.4496 135.291 13.5633C135.536 13.6798 135.855 13.738 136.25 13.738C136.778 13.738 137.214 13.6102 137.558 13.3545C137.902 13.0988 138.074 12.6982 138.074 12.1528V10.8232H137.989C137.915 10.9425 137.81 11.0903 137.673 11.2664C137.54 11.4397 137.347 11.5945 137.094 11.7309C136.844 11.8644 136.506 11.9312 136.08 11.9312C135.551 11.9312 135.077 11.8062 134.656 11.5562C134.239 11.3062 133.908 10.9425 133.663 10.4653C133.422 9.98799 133.301 9.40845 133.301 8.72663C133.301 8.05617 133.419 7.47237 133.655 6.97521C133.891 6.47521 134.219 6.08884 134.639 5.81612C135.06 5.54055 135.545 5.40277 136.097 5.40277C136.523 5.40277 136.861 5.47379 137.111 5.61583C137.364 5.75504 137.557 5.91413 137.69 6.09311C137.827 6.26924 137.932 6.41413 138.006 6.52777H138.108V5.48799H139.08V12.2209C139.08 12.7834 138.952 13.2408 138.696 13.5931C138.443 13.9482 138.102 14.2082 137.673 14.3729C137.247 14.5405 136.773 14.6244 136.25 14.6244ZM136.216 11.0278C136.619 11.0278 136.96 10.9354 137.239 10.7508C137.517 10.5661 137.729 10.3005 137.874 9.9539C138.018 9.60731 138.091 9.19254 138.091 8.70958C138.091 8.23799 138.02 7.8218 137.878 7.461C137.736 7.10021 137.526 6.81754 137.247 6.61299C136.969 6.40845 136.625 6.30617 136.216 6.30617C135.79 6.30617 135.435 6.41413 135.151 6.63004C134.869 6.84595 134.658 7.13572 134.516 7.49936C134.376 7.86299 134.307 8.2664 134.307 8.70958C134.307 9.16413 134.378 9.56612 134.52 9.91555C134.665 10.2621 134.878 10.5349 135.159 10.7337C135.443 10.9298 135.795 11.0278 136.216 11.0278Z" fill="#03045E"/>
<path d="M15.1538 4.24367V3.30617H21.6992V4.24367H18.9549V12.0334H17.8981V4.24367H15.1538ZM23.1939 12.0334V5.48799H24.1996V12.0334H23.1939ZM23.7053 4.39708C23.5092 4.39708 23.3402 4.33032 23.1982 4.1968C23.0589 4.06328 22.9893 3.90277 22.9893 3.71527C22.9893 3.52777 23.0589 3.36725 23.1982 3.23373C23.3402 3.10021 23.5092 3.03345 23.7053 3.03345C23.9013 3.03345 24.0689 3.10021 24.2081 3.23373C24.3501 3.36725 24.4212 3.52777 24.4212 3.71527C24.4212 3.90277 24.3501 4.06328 24.2081 4.1968C24.0689 4.33032 23.9013 4.39708 23.7053 4.39708ZM27.0472 3.30617V12.0334H26.0415V3.30617H27.0472ZM29.8949 3.30617V12.0334H28.8892V3.30617H29.8949ZM34.3789 14.6244C33.8931 14.6244 33.4755 14.5619 33.1261 14.4369C32.7766 14.3147 32.4854 14.1528 32.2525 13.9511C32.0224 13.7522 31.8391 13.5391 31.7028 13.3119L32.5039 12.7494C32.5948 12.8687 32.7099 13.005 32.8491 13.1584C32.9883 13.3147 33.1786 13.4496 33.4201 13.5633C33.6644 13.6798 33.984 13.738 34.3789 13.738C34.9073 13.738 35.3434 13.6102 35.6871 13.3545C36.0309 13.0988 36.2028 12.6982 36.2028 12.1528V10.8232H36.1175C36.0437 10.9425 35.9386 11.0903 35.8022 11.2664C35.6687 11.4397 35.4755 11.5945 35.2227 11.7309C34.9727 11.8644 34.6346 11.9312 34.2085 11.9312C33.68 11.9312 33.2056 11.8062 32.7852 11.5562C32.3675 11.3062 32.0366 10.9425 31.7923 10.4653C31.5508 9.98799 31.43 9.40845 31.43 8.72663C31.43 8.05617 31.5479 7.47237 31.7837 6.97521C32.0195 6.47521 32.3477 6.08884 32.7681 5.81612C33.1886 5.54055 33.6744 5.40277 34.2255 5.40277C34.6516 5.40277 34.9897 5.47379 35.2397 5.61583C35.4925 5.75504 35.6857 5.91413 35.8192 6.09311C35.9556 6.26924 36.0607 6.41413 36.1346 6.52777H36.2369V5.48799H37.2085V12.2209C37.2085 12.7834 37.0806 13.2408 36.8249 13.5931C36.5721 13.9482 36.2312 14.2082 35.8022 14.3729C35.3761 14.5405 34.9016 14.6244 34.3789 14.6244ZM34.3448 11.0278C34.7482 11.0278 35.0891 10.9354 35.3675 10.7508C35.646 10.5661 35.8576 10.3005 36.0025 9.9539C36.1474 9.60731 36.2198 9.19254 36.2198 8.70958C36.2198 8.23799 36.1488 7.8218 36.0067 7.461C35.8647 7.10021 35.6545 6.81754 35.3761 6.61299C35.0977 6.40845 34.7539 6.30617 34.3448 6.30617C33.9187 6.30617 33.5636 6.41413 33.2795 6.63004C32.9982 6.84595 32.7866 7.13572 32.6445 7.49936C32.5053 7.86299 32.4357 8.2664 32.4357 8.70958C32.4357 9.16413 32.5067 9.56612 32.6488 9.91555C32.7937 10.2621 33.0067 10.5349 33.288 10.7337C33.5721 10.9298 33.9244 11.0278 34.3448 11.0278ZM40.9755 12.1869C40.5607 12.1869 40.1843 12.1087 39.8462 11.9525C39.5082 11.7934 39.2397 11.5647 39.0408 11.2664C38.842 10.9653 38.7425 10.6016 38.7425 10.1755C38.7425 9.80049 38.8164 9.49652 38.9641 9.26356C39.1119 9.02777 39.3093 8.84311 39.5565 8.70958C39.8036 8.57606 40.0763 8.47663 40.3746 8.41129C40.6758 8.34311 40.9783 8.28913 41.2823 8.24936C41.68 8.19822 42.0025 8.15987 42.2496 8.1343C42.4996 8.10589 42.6815 8.05902 42.7951 7.99367C42.9116 7.92833 42.9698 7.8147 42.9698 7.65277V7.61867C42.9698 7.19822 42.8548 6.87152 42.6246 6.63856C42.3974 6.40561 42.0522 6.28913 41.5891 6.28913C41.109 6.28913 40.7326 6.39424 40.4599 6.60447C40.1871 6.8147 39.9954 7.03913 39.8846 7.27777L38.93 6.93686C39.1005 6.53913 39.3278 6.22947 39.6119 6.00788C39.8988 5.78345 40.2113 5.6272 40.5494 5.53913C40.8903 5.44822 41.2255 5.40277 41.555 5.40277C41.7653 5.40277 42.0067 5.42833 42.2795 5.47947C42.555 5.52777 42.8207 5.62862 43.0763 5.78203C43.3349 5.93544 43.5494 6.16697 43.7198 6.47663C43.8903 6.78629 43.9755 7.20106 43.9755 7.72095V12.0334H42.9698V11.1471H42.9187C42.8505 11.2891 42.7369 11.4411 42.5778 11.603C42.4187 11.765 42.207 11.9028 41.9428 12.0164C41.6786 12.13 41.3562 12.1869 40.9755 12.1869ZM41.1289 11.2834C41.5266 11.2834 41.8619 11.2053 42.1346 11.0491C42.4102 10.8928 42.6175 10.6911 42.7567 10.444C42.8988 10.1968 42.9698 9.93686 42.9698 9.66413V8.74367C42.9272 8.79481 42.8335 8.84169 42.6886 8.8843C42.5465 8.92407 42.3817 8.95958 42.1942 8.99083C42.0096 9.01924 41.8292 9.04481 41.6531 9.06754C41.4798 9.08742 41.3391 9.10447 41.2312 9.11867C40.9698 9.15277 40.7255 9.20816 40.4982 9.28487C40.2738 9.35873 40.092 9.47095 39.9528 9.62152C39.8164 9.76924 39.7482 9.97095 39.7482 10.2266C39.7482 10.5761 39.8775 10.8403 40.136 11.0192C40.3974 11.1954 40.7283 11.2834 41.1289 11.2834ZM40.396 4.39708C40.217 4.39708 40.0579 4.3289 39.9187 4.19254C39.7823 4.05333 39.7141 3.89424 39.7141 3.71527C39.7141 3.51924 39.7823 3.35731 39.9187 3.22947C40.0579 3.09879 40.217 3.03345 40.396 3.03345C40.592 3.03345 40.7539 3.09879 40.8817 3.22947C41.0124 3.35731 41.0778 3.51924 41.0778 3.71527C41.0778 3.89424 41.0124 4.05333 40.8817 4.19254C40.7539 4.3289 40.592 4.39708 40.396 4.39708ZM42.8505 4.39708C42.6715 4.39708 42.5124 4.3289 42.3732 4.19254C42.2369 4.05333 42.1687 3.89424 42.1687 3.71527C42.1687 3.51924 42.2369 3.35731 42.3732 3.22947C42.5124 3.09879 42.6715 3.03345 42.8505 3.03345C43.0465 3.03345 43.2085 3.09879 43.3363 3.22947C43.467 3.35731 43.5323 3.51924 43.5323 3.71527C43.5323 3.89424 43.467 4.05333 43.3363 4.19254C43.2085 4.3289 43.0465 4.39708 42.8505 4.39708ZM46.8168 8.09595V12.0334H45.8111V5.48799H46.7827V6.51072H46.8679C47.0213 6.17833 47.2543 5.91129 47.5668 5.70958C47.8793 5.50504 48.2827 5.40277 48.777 5.40277C49.2202 5.40277 49.608 5.49367 49.9403 5.67549C50.2727 5.85447 50.5313 6.1272 50.7159 6.49367C50.9006 6.85731 50.9929 7.31754 50.9929 7.87436V12.0334H49.9872V7.94254C49.9872 7.42833 49.8537 7.02777 49.5866 6.74083C49.3196 6.45106 48.9531 6.30617 48.4872 6.30617C48.1662 6.30617 47.8793 6.37578 47.6264 6.51498C47.3764 6.65419 47.179 6.85731 47.0341 7.12436C46.8892 7.3914 46.8168 7.71527 46.8168 8.09595ZM55.4727 14.6244C54.9869 14.6244 54.5692 14.5619 54.2198 14.4369C53.8704 14.3147 53.5792 14.1528 53.3462 13.9511C53.1161 13.7522 52.9329 13.5391 52.7965 13.3119L53.5977 12.7494C53.6886 12.8687 53.8036 13.005 53.9428 13.1584C54.082 13.3147 54.2724 13.4496 54.5138 13.5633C54.7582 13.6798 55.0778 13.738 55.4727 13.738C56.0011 13.738 56.4371 13.6102 56.7809 13.3545C57.1246 13.0988 57.2965 12.6982 57.2965 12.1528V10.8232H57.2113C57.1374 10.9425 57.0323 11.0903 56.896 11.2664C56.7624 11.4397 56.5692 11.5945 56.3164 11.7309C56.0664 11.8644 55.7283 11.9312 55.3022 11.9312C54.7738 11.9312 54.2994 11.8062 53.8789 11.5562C53.4613 11.3062 53.1303 10.9425 52.886 10.4653C52.6445 9.98799 52.5238 9.40845 52.5238 8.72663C52.5238 8.05617 52.6417 7.47237 52.8775 6.97521C53.1133 6.47521 53.4414 6.08884 53.8619 5.81612C54.2823 5.54055 54.7681 5.40277 55.3192 5.40277C55.7454 5.40277 56.0835 5.47379 56.3335 5.61583C56.5863 5.75504 56.7795 5.91413 56.913 6.09311C57.0494 6.26924 57.1545 6.41413 57.2283 6.52777H57.3306V5.48799H58.3022V12.2209C58.3022 12.7834 58.1744 13.2408 57.9187 13.5931C57.6658 13.9482 57.3249 14.2082 56.896 14.3729C56.4698 14.5405 55.9954 14.6244 55.4727 14.6244ZM55.4386 11.0278C55.842 11.0278 56.1829 10.9354 56.4613 10.7508C56.7397 10.5661 56.9513 10.3005 57.0962 9.9539C57.2411 9.60731 57.3136 9.19254 57.3136 8.70958C57.3136 8.23799 57.2425 7.8218 57.1005 7.461C56.9585 7.10021 56.7482 6.81754 56.4698 6.61299C56.1914 6.40845 55.8477 6.30617 55.4386 6.30617C55.0124 6.30617 54.6573 6.41413 54.3732 6.63004C54.092 6.84595 53.8803 7.13572 53.7383 7.49936C53.5991 7.86299 53.5295 8.2664 53.5295 8.70958C53.5295 9.16413 53.6005 9.56612 53.7425 9.91555C53.8874 10.2621 54.1005 10.5349 54.3817 10.7337C54.6658 10.9298 55.0181 11.0278 55.4386 11.0278ZM61.1488 3.30617V12.0334H60.1431V3.30617H61.1488ZM62.9908 12.0334V5.48799H63.9964V12.0334H62.9908ZM63.5021 4.39708C63.3061 4.39708 63.1371 4.33032 62.995 4.1968C62.8558 4.06328 62.7862 3.90277 62.7862 3.71527C62.7862 3.52777 62.8558 3.36725 62.995 3.23373C63.1371 3.10021 63.3061 3.03345 63.5021 3.03345C63.6982 3.03345 63.8658 3.10021 64.005 3.23373C64.147 3.36725 64.218 3.52777 64.218 3.71527C64.218 3.90277 64.147 4.06328 64.005 4.1968C63.8658 4.33032 63.6982 4.39708 63.5021 4.39708ZM68.4805 14.6244C67.9947 14.6244 67.5771 14.5619 67.2276 14.4369C66.8782 14.3147 66.587 14.1528 66.354 13.9511C66.1239 13.7522 65.9407 13.5391 65.8043 13.3119L66.6055 12.7494C66.6964 12.8687 66.8114 13.005 66.9506 13.1584C67.0898 13.3147 67.2802 13.4496 67.5217 13.5633C67.766 13.6798 68.0856 13.738 68.4805 13.738C69.0089 13.738 69.445 13.6102 69.7887 13.3545C70.1325 13.0988 70.3043 12.6982 70.3043 12.1528V10.8232H70.2191C70.1452 10.9425 70.0401 11.0903 69.9038 11.2664C69.7702 11.4397 69.5771 11.5945 69.3242 11.7309C69.0742 11.8644 68.7362 11.9312 68.31 11.9312C67.7816 11.9312 67.3072 11.8062 66.8867 11.5562C66.4691 11.3062 66.1381 10.9425 65.8938 10.4653C65.6523 9.98799 65.5316 9.40845 65.5316 8.72663C65.5316 8.05617 65.6495 7.47237 65.8853 6.97521C66.1211 6.47521 66.4492 6.08884 66.8697 5.81612C67.2901 5.54055 67.7759 5.40277 68.3271 5.40277C68.7532 5.40277 69.0913 5.47379 69.3413 5.61583C69.5941 5.75504 69.7873 5.91413 69.9208 6.09311C70.0572 6.26924 70.1623 6.41413 70.2362 6.52777H70.3384V5.48799H71.31V12.2209C71.31 12.7834 71.1822 13.2408 70.9265 13.5931C70.6737 13.9482 70.3327 14.2082 69.9038 14.3729C69.4776 14.5405 69.0032 14.6244 68.4805 14.6244ZM68.4464 11.0278C68.8498 11.0278 69.1907 10.9354 69.4691 10.7508C69.7475 10.5661 69.9592 10.3005 70.104 9.9539C70.2489 9.60731 70.3214 9.19254 70.3214 8.70958C70.3214 8.23799 70.2504 7.8218 70.1083 7.461C69.9663 7.10021 69.756 6.81754 69.4776 6.61299C69.1992 6.40845 68.8555 6.30617 68.4464 6.30617C68.0202 6.30617 67.6651 6.41413 67.381 6.63004C67.0998 6.84595 66.8881 7.13572 66.7461 7.49936C66.6069 7.86299 66.5373 8.2664 66.5373 8.70958C66.5373 9.16413 66.6083 9.56612 66.7504 9.91555C66.8952 10.2621 67.1083 10.5349 67.3896 10.7337C67.6737 10.9298 68.0259 11.0278 68.4464 11.0278ZM79.4407 5.48799V6.34027H75.9123V5.48799H79.4407ZM76.9691 12.0334V4.58458C76.9691 4.20958 77.0572 3.89708 77.2333 3.64708C77.4094 3.39708 77.6381 3.20958 77.9194 3.08458C78.2006 2.95958 78.4975 2.89708 78.81 2.89708C79.0572 2.89708 79.2589 2.91697 79.4151 2.95674C79.5714 2.99652 79.6879 3.03345 79.7646 3.06754L79.4748 3.93686C79.4237 3.91981 79.3526 3.8985 79.2617 3.87294C79.1737 3.84737 79.0572 3.83458 78.9123 3.83458C78.5799 3.83458 78.3398 3.91839 78.1921 4.086C78.0472 4.25362 77.9748 4.49936 77.9748 4.82322V12.0334H76.9691ZM83.2397 12.1698C82.6488 12.1698 82.1303 12.0292 81.6843 11.7479C81.2411 11.4667 80.8945 11.0732 80.6445 10.5675C80.3974 10.0619 80.2738 9.47095 80.2738 8.79481C80.2738 8.11299 80.3974 7.51782 80.6445 7.0093C80.8945 6.50078 81.2411 6.10589 81.6843 5.82464C82.1303 5.54339 82.6488 5.40277 83.2397 5.40277C83.8306 5.40277 84.3477 5.54339 84.7908 5.82464C85.2369 6.10589 85.5835 6.50078 85.8306 7.0093C86.0806 7.51782 86.2056 8.11299 86.2056 8.79481C86.2056 9.47095 86.0806 10.0619 85.8306 10.5675C85.5835 11.0732 85.2369 11.4667 84.7908 11.7479C84.3477 12.0292 83.8306 12.1698 83.2397 12.1698ZM83.2397 11.2664C83.6886 11.2664 84.0579 11.1513 84.3477 10.9212C84.6374 10.6911 84.8519 10.3886 84.9911 10.0136C85.1303 9.63856 85.1999 9.23231 85.1999 8.79481C85.1999 8.35731 85.1303 7.94964 84.9911 7.5718C84.8519 7.19396 84.6374 6.88856 84.3477 6.65561C84.0579 6.42265 83.6886 6.30617 83.2397 6.30617C82.7908 6.30617 82.4215 6.42265 82.1317 6.65561C81.842 6.88856 81.6275 7.19396 81.4883 7.5718C81.3491 7.94964 81.2795 8.35731 81.2795 8.79481C81.2795 9.23231 81.3491 9.63856 81.4883 10.0136C81.6275 10.3886 81.842 10.6911 82.1317 10.9212C82.4215 11.1513 82.7908 11.2664 83.2397 11.2664ZM82.0124 4.39708C81.8335 4.39708 81.6744 4.3289 81.5352 4.19254C81.3988 4.05333 81.3306 3.89424 81.3306 3.71527C81.3306 3.51924 81.3988 3.35731 81.5352 3.22947C81.6744 3.09879 81.8335 3.03345 82.0124 3.03345C82.2085 3.03345 82.3704 3.09879 82.4982 3.22947C82.6289 3.35731 82.6942 3.51924 82.6942 3.71527C82.6942 3.89424 82.6289 4.05333 82.4982 4.19254C82.3704 4.3289 82.2085 4.39708 82.0124 4.39708ZM84.467 4.39708C84.288 4.39708 84.1289 4.3289 83.9897 4.19254C83.8533 4.05333 83.7852 3.89424 83.7852 3.71527C83.7852 3.51924 83.8533 3.35731 83.9897 3.22947C84.1289 3.09879 84.288 3.03345 84.467 3.03345C84.663 3.03345 84.8249 3.09879 84.9528 3.22947C85.0835 3.35731 85.1488 3.51924 85.1488 3.71527C85.1488 3.89424 85.0835 4.05333 84.9528 4.19254C84.8249 4.3289 84.663 4.39708 84.467 4.39708ZM87.7408 12.0334V5.48799H88.7124V6.47663H88.7805C88.8999 6.15277 89.1158 5.88998 89.4283 5.68828C89.7408 5.48657 90.093 5.38572 90.4851 5.38572C90.5589 5.38572 90.6513 5.38714 90.7621 5.38998C90.8729 5.39282 90.9567 5.39708 91.0135 5.40277V6.42549C90.9794 6.41697 90.9013 6.40419 90.7791 6.38714C90.6598 6.36725 90.5334 6.35731 90.3999 6.35731C90.0817 6.35731 89.7976 6.42407 89.5476 6.55759C89.3004 6.68828 89.1044 6.87009 88.9595 7.10305C88.8175 7.33316 88.7464 7.59595 88.7464 7.8914V12.0334H87.7408ZM95.717 12.0334V3.30617H96.7227V6.52777H96.8079C96.8817 6.41413 96.984 6.26924 97.1147 6.09311C97.2482 5.91413 97.4386 5.75504 97.6857 5.61583C97.9357 5.47379 98.2738 5.40277 98.6999 5.40277C99.2511 5.40277 99.7369 5.54055 100.157 5.81612C100.578 6.09169 100.906 6.48231 101.142 6.98799C101.377 7.49367 101.495 8.09027 101.495 8.77777C101.495 9.47095 101.377 10.0718 101.142 10.5803C100.906 11.086 100.579 11.478 100.162 11.7565C99.744 12.032 99.2624 12.1698 98.717 12.1698C98.2965 12.1698 97.9599 12.1002 97.707 11.961C97.4542 11.819 97.2596 11.6584 97.1232 11.4795C96.9869 11.2977 96.8817 11.1471 96.8079 11.0278H96.6886V12.0334H95.717ZM96.7056 8.76072C96.7056 9.25504 96.7781 9.69112 96.9229 10.069C97.0678 10.444 97.2795 10.738 97.5579 10.9511C97.8363 11.1613 98.1772 11.2664 98.5806 11.2664C99.0011 11.2664 99.3519 11.1556 99.6332 10.934C99.9173 10.7096 100.13 10.4084 100.272 10.0306C100.417 9.64992 100.49 9.22663 100.49 8.76072C100.49 8.30049 100.419 7.88572 100.277 7.5164C100.137 7.14424 99.9258 6.85021 99.6417 6.6343C99.3604 6.41555 99.0067 6.30617 98.5806 6.30617C98.1715 6.30617 97.8278 6.40987 97.5494 6.61725C97.271 6.8218 97.0607 7.10873 96.9187 7.47805C96.7766 7.84453 96.7056 8.27208 96.7056 8.76072ZM105.693 12.1698C105.102 12.1698 104.583 12.0292 104.137 11.7479C103.694 11.4667 103.348 11.0732 103.098 10.5675C102.85 10.0619 102.727 9.47095 102.727 8.79481C102.727 8.11299 102.85 7.51782 103.098 7.0093C103.348 6.50078 103.694 6.10589 104.137 5.82464C104.583 5.54339 105.102 5.40277 105.693 5.40277C106.284 5.40277 106.801 5.54339 107.244 5.82464C107.69 6.10589 108.037 6.50078 108.284 7.0093C108.534 7.51782 108.659 8.11299 108.659 8.79481C108.659 9.47095 108.534 10.0619 108.284 10.5675C108.037 11.0732 107.69 11.4667 107.244 11.7479C106.801 12.0292 106.284 12.1698 105.693 12.1698ZM105.693 11.2664C106.142 11.2664 106.511 11.1513 106.801 10.9212C107.091 10.6911 107.305 10.3886 107.444 10.0136C107.583 9.63856 107.653 9.23231 107.653 8.79481C107.653 8.35731 107.583 7.94964 107.444 7.5718C107.305 7.19396 107.091 6.88856 106.801 6.65561C106.511 6.42265 106.142 6.30617 105.693 6.30617C105.244 6.30617 104.875 6.42265 104.585 6.65561C104.295 6.88856 104.081 7.19396 103.941 7.5718C103.802 7.94964 103.733 8.35731 103.733 8.79481C103.733 9.23231 103.802 9.63856 103.941 10.0136C104.081 10.3886 104.295 10.6911 104.585 10.9212C104.875 11.1513 105.244 11.2664 105.693 11.2664ZM111.131 9.64708L111.114 8.40277H111.319L114.183 5.48799H115.427L112.376 8.57322H112.29L111.131 9.64708ZM110.194 12.0334V3.30617H111.2V12.0334H110.194ZM114.353 12.0334L111.796 8.79481L112.512 8.09595L115.631 12.0334H114.353ZM117.727 8.09595V12.0334H116.721V5.48799H117.693V6.51072H117.778C117.931 6.17833 118.164 5.91129 118.477 5.70958C118.789 5.50504 119.193 5.40277 119.687 5.40277C120.13 5.40277 120.518 5.49367 120.85 5.67549C121.183 5.85447 121.441 6.1272 121.626 6.49367C121.811 6.85731 121.903 7.31754 121.903 7.87436V12.0334H120.897V7.94254C120.897 7.42833 120.764 7.02777 120.497 6.74083C120.23 6.45106 119.863 6.30617 119.397 6.30617C119.076 6.30617 118.789 6.37578 118.537 6.51498C118.287 6.65419 118.089 6.85731 117.944 7.12436C117.799 7.3914 117.727 7.71527 117.727 8.09595ZM123.741 12.0334V5.48799H124.746V12.0334H123.741ZM124.252 4.39708C124.056 4.39708 123.887 4.33032 123.745 4.1968C123.606 4.06328 123.536 3.90277 123.536 3.71527C123.536 3.52777 123.606 3.36725 123.745 3.23373C123.887 3.10021 124.056 3.03345 124.252 3.03345C124.448 3.03345 124.616 3.10021 124.755 3.23373C124.897 3.36725 124.968 3.52777 124.968 3.71527C124.968 3.90277 124.897 4.06328 124.755 4.1968C124.616 4.33032 124.448 4.39708 124.252 4.39708ZM127.594 8.09595V12.0334H126.588V5.48799H127.56V6.51072H127.645C127.799 6.17833 128.032 5.91129 128.344 5.70958C128.657 5.50504 129.06 5.40277 129.554 5.40277C129.998 5.40277 130.385 5.49367 130.718 5.67549C131.05 5.85447 131.309 6.1272 131.493 6.49367C131.678 6.85731 131.77 7.31754 131.77 7.87436V12.0334H130.765V7.94254C130.765 7.42833 130.631 7.02777 130.364 6.74083C130.097 6.45106 129.73 6.30617 129.265 6.30617C128.944 6.30617 128.657 6.37578 128.404 6.51498C128.154 6.65419 127.956 6.85731 127.811 7.12436C127.667 7.3914 127.594 7.71527 127.594 8.09595ZM136.25 14.6244C135.764 14.6244 135.347 14.5619 134.997 14.4369C134.648 14.3147 134.357 14.1528 134.124 13.9511C133.893 13.7522 133.71 13.5391 133.574 13.3119L134.375 12.7494C134.466 12.8687 134.581 13.005 134.72 13.1584C134.859 13.3147 135.05 13.4496 135.291 13.5633C135.536 13.6798 135.855 13.738 136.25 13.738C136.778 13.738 137.214 13.6102 137.558 13.3545C137.902 13.0988 138.074 12.6982 138.074 12.1528V10.8232H137.989C137.915 10.9425 137.81 11.0903 137.673 11.2664C137.54 11.4397 137.347 11.5945 137.094 11.7309C136.844 11.8644 136.506 11.9312 136.08 11.9312C135.551 11.9312 135.077 11.8062 134.656 11.5562C134.239 11.3062 133.908 10.9425 133.663 10.4653C133.422 9.98799 133.301 9.40845 133.301 8.72663C133.301 8.05617 133.419 7.47237 133.655 6.97521C133.891 6.47521 134.219 6.08884 134.639 5.81612C135.06 5.54055 135.545 5.40277 136.097 5.40277C136.523 5.40277 136.861 5.47379 137.111 5.61583C137.364 5.75504 137.557 5.91413 137.69 6.09311C137.827 6.26924 137.932 6.41413 138.006 6.52777H138.108V5.48799H139.08V12.2209C139.08 12.7834 138.952 13.2408 138.696 13.5931C138.443 13.9482 138.102 14.2082 137.673 14.3729C137.247 14.5405 136.773 14.6244 136.25 14.6244ZM136.216 11.0278C136.619 11.0278 136.96 10.9354 137.239 10.7508C137.517 10.5661 137.729 10.3005 137.874 9.9539C138.018 9.60731 138.091 9.19254 138.091 8.70958C138.091 8.23799 138.02 7.8218 137.878 7.461C137.736 7.10021 137.526 6.81754 137.247 6.61299C136.969 6.40845 136.625 6.30617 136.216 6.30617C135.79 6.30617 135.435 6.41413 135.151 6.63004C134.869 6.84595 134.658 7.13572 134.516 7.49936C134.376 7.86299 134.307 8.2664 134.307 8.70958C134.307 9.16413 134.378 9.56612 134.52 9.91555C134.665 10.2621 134.878 10.5349 135.159 10.7337C135.443 10.9298 135.795 11.0278 136.216 11.0278Z" fill="black" fill-opacity="0.2"/>
</svg>
