<svg width="146" height="93" viewBox="0 0 146 93" fill="none" xmlns="http://www.w3.org/2000/svg">
<path d="M145 0.596184L76 70.7444L145 0.596184Z" fill="#03045E"/>
<path d="M145 0.596184L76 70.7444L145 0.596184Z" fill="black" fill-opacity="0.2"/>
<path d="M145 0.596183L76 70.7444" stroke="#03045E"/>
<path d="M145 0.596183L76 70.7444" stroke="black" stroke-opacity="0.2"/>
<path d="M31.527 83.7611V75.0338H34.4759C35.1606 75.0338 35.7202 75.1574 36.1549 75.4046C36.5924 75.6489 36.9163 75.9799 37.1265 76.3975C37.3367 76.8151 37.4418 77.281 37.4418 77.7952C37.4418 78.3094 37.3367 78.7767 37.1265 79.1972C36.9191 79.6176 36.5981 79.9529 36.1634 80.2029C35.7288 80.45 35.1719 80.5736 34.493 80.5736H32.3793V79.6361H34.4589C34.9276 79.6361 35.304 79.5551 35.5881 79.3932C35.8722 79.2313 36.0782 79.0125 36.206 78.737C36.3367 78.4586 36.402 78.1446 36.402 77.7952C36.402 77.4458 36.3367 77.1333 36.206 76.8577C36.0782 76.5821 35.8708 76.3662 35.5839 76.21C35.2969 76.0509 34.9163 75.9713 34.4418 75.9713H32.5839V83.7611H31.527ZM39.0079 83.7611V77.2157H39.9795V78.2043H40.0476C40.167 77.8804 40.3829 77.6176 40.6954 77.4159C41.0079 77.2142 41.3601 77.1134 41.7522 77.1134C41.8261 77.1134 41.9184 77.1148 42.0292 77.1176C42.14 77.1205 42.2238 77.1247 42.2806 77.1304V78.1532C42.2465 78.1446 42.1684 78.1318 42.0462 78.1148C41.9269 78.0949 41.8005 78.085 41.667 78.085C41.3488 78.085 41.0647 78.1517 40.8147 78.2853C40.5675 78.4159 40.3715 78.5978 40.2266 78.8307C40.0846 79.0608 40.0136 79.3236 40.0136 79.6191V83.7611H39.0079ZM46.0178 83.8975C45.3871 83.8975 44.8431 83.7583 44.3857 83.4799C43.9312 83.1986 43.5803 82.8066 43.3332 82.3037C43.0888 81.798 42.9667 81.21 42.9667 80.5395C42.9667 79.8691 43.0888 79.2782 43.3332 78.7668C43.5803 78.2526 43.9241 77.852 44.3644 77.5651C44.8076 77.2753 45.3246 77.1304 45.9155 77.1304C46.2565 77.1304 46.5931 77.1872 46.9255 77.3009C47.2579 77.4145 47.5604 77.5992 47.8332 77.8549C48.1059 78.1077 48.3232 78.4429 48.4851 78.8605C48.6471 79.2782 48.728 79.7924 48.728 80.4032V80.8293H43.6826V79.96H47.7053C47.7053 79.5907 47.6315 79.2611 47.4837 78.9713C47.3388 78.6816 47.1315 78.4529 46.8616 78.2853C46.5945 78.1176 46.2792 78.0338 45.9155 78.0338C45.515 78.0338 45.1684 78.1333 44.8758 78.3321C44.586 78.5282 44.363 78.7838 44.2067 79.0992C44.0505 79.4145 43.9724 79.7526 43.9724 80.1134V80.6929C43.9724 81.1872 44.0576 81.6063 44.228 81.95C44.4013 82.2909 44.6414 82.5509 44.9482 82.7299C45.255 82.906 45.6116 82.9941 46.0178 82.9941C46.282 82.9941 46.5207 82.9571 46.7337 82.8833C46.9496 82.8066 47.1357 82.6929 47.292 82.5424C47.4482 82.3889 47.569 82.1986 47.6542 81.9713L48.6258 82.2441C48.5235 82.5736 48.3516 82.8634 48.1101 83.1134C47.8687 83.3605 47.5704 83.5537 47.2153 83.6929C46.8601 83.8293 46.461 83.8975 46.0178 83.8975ZM51.2636 75.0338V83.7611H50.2579V75.0338H51.2636ZM53.1055 83.7611V77.2157H54.1112V83.7611H53.1055ZM53.6169 76.1247C53.4209 76.1247 53.2518 76.058 53.1098 75.9245C52.9706 75.7909 52.901 75.6304 52.901 75.4429C52.901 75.2554 52.9706 75.0949 53.1098 74.9614C53.2518 74.8279 53.4209 74.7611 53.6169 74.7611C53.8129 74.7611 53.9805 74.8279 54.1197 74.9614C54.2618 75.0949 54.3328 75.2554 54.3328 75.4429C54.3328 75.6304 54.2618 75.7909 54.1197 75.9245C53.9805 76.058 53.8129 76.1247 53.6169 76.1247ZM55.9532 83.7611V77.2157H56.9248V78.2384H57.01C57.1464 77.8889 57.3665 77.6176 57.6705 77.4245C57.9745 77.2284 58.3395 77.1304 58.7657 77.1304C59.1975 77.1304 59.5569 77.2284 59.8438 77.4245C60.1336 77.6176 60.3594 77.8889 60.5214 78.2384H60.5895C60.7572 77.9003 61.0086 77.6318 61.3438 77.433C61.679 77.2313 62.081 77.1304 62.5498 77.1304C63.135 77.1304 63.6137 77.3137 63.9859 77.6801C64.358 78.0438 64.5441 78.6105 64.5441 79.3804V83.7611H63.5384V79.3804C63.5384 78.8975 63.4063 78.5523 63.1421 78.3449C62.8779 78.1375 62.5668 78.0338 62.2089 78.0338C61.7486 78.0338 61.3921 78.173 61.1393 78.4514C60.8864 78.727 60.76 79.0764 60.76 79.4997V83.7611H59.7373V79.2782C59.7373 78.906 59.6165 78.6063 59.3751 78.379C59.1336 78.1489 58.8225 78.0338 58.4418 78.0338C58.1805 78.0338 57.9361 78.1034 57.7089 78.2426C57.4844 78.3818 57.3026 78.575 57.1634 78.8222C57.027 79.0665 56.9589 79.3492 56.9589 79.6702V83.7611H55.9532ZM66.3829 83.7611V77.2157H67.3886V83.7611H66.3829ZM66.8942 76.1247C66.6982 76.1247 66.5292 76.058 66.3871 75.9245C66.2479 75.7909 66.1783 75.6304 66.1783 75.4429C66.1783 75.2554 66.2479 75.0949 66.3871 74.9614C66.5292 74.8279 66.6982 74.7611 66.8942 74.7611C67.0903 74.7611 67.2579 74.8279 67.3971 74.9614C67.5391 75.0949 67.6101 75.2554 67.6101 75.4429C67.6101 75.6304 67.5391 75.7909 67.3971 75.9245C67.2579 76.058 67.0903 76.1247 66.8942 76.1247ZM70.2362 79.8236V83.7611H69.2305V77.2157H70.2021V78.2384H70.2873C70.4408 77.906 70.6737 77.6389 70.9862 77.4372C71.2987 77.2327 71.7021 77.1304 72.1964 77.1304C72.6396 77.1304 73.0274 77.2213 73.3598 77.4032C73.6922 77.5821 73.9507 77.8549 74.1354 78.2213C74.32 78.585 74.4123 79.0452 74.4123 79.602V83.7611H73.4067V79.6702C73.4067 79.156 73.2731 78.7554 73.0061 78.4685C72.7391 78.1787 72.3726 78.0338 71.9067 78.0338C71.5856 78.0338 71.2987 78.1034 71.0459 78.2426C70.7959 78.3818 70.5984 78.585 70.4535 78.852C70.3087 79.1191 70.2362 79.4429 70.2362 79.8236ZM78.1762 83.9145C77.7614 83.9145 77.385 83.8364 77.0469 83.6801C76.7089 83.5211 76.4404 83.2924 76.2415 82.9941C76.0427 82.6929 75.9432 82.3293 75.9432 81.9032C75.9432 81.5282 76.0171 81.2242 76.1648 80.9912C76.3126 80.7554 76.51 80.5708 76.7572 80.4372C77.0043 80.3037 77.277 80.2043 77.5753 80.1389C77.8765 80.0708 78.179 80.0168 78.483 79.977C78.8807 79.9259 79.2032 79.8875 79.4503 79.862C79.7003 79.8336 79.8822 79.7867 79.9958 79.7213C80.1123 79.656 80.1705 79.5424 80.1705 79.3804V79.3463C80.1705 78.9259 80.0555 78.5992 79.8253 78.3662C79.5981 78.1333 79.2529 78.0168 78.7898 78.0168C78.3097 78.0168 77.9333 78.1219 77.6606 78.3321C77.3878 78.5424 77.1961 78.7668 77.0853 79.0054L76.1307 78.6645C76.3012 78.2668 76.5285 77.9571 76.8126 77.7355C77.0995 77.5111 77.412 77.3549 77.7501 77.2668C78.091 77.1759 78.4262 77.1304 78.7557 77.1304C78.966 77.1304 79.2074 77.156 79.4802 77.2071C79.7557 77.2554 80.0214 77.3563 80.277 77.5097C80.5356 77.6631 80.7501 77.8946 80.9205 78.2043C81.091 78.5139 81.1762 78.9287 81.1762 79.4486V83.7611H80.1705V82.8747H80.1194C80.0512 83.0168 79.9376 83.1688 79.7785 83.3307C79.6194 83.4926 79.4077 83.6304 79.1435 83.7441C78.8793 83.8577 78.5569 83.9145 78.1762 83.9145ZM78.3296 83.0111C78.7273 83.0111 79.0626 82.933 79.3353 82.7767C79.6109 82.6205 79.8182 82.4188 79.9574 82.1716C80.0995 81.9245 80.1705 81.6645 80.1705 81.3918V80.4713C80.1279 80.5225 80.0342 80.5693 79.8893 80.612C79.7472 80.6517 79.5824 80.6872 79.3949 80.7185C79.2103 80.7469 79.0299 80.7725 78.8538 80.7952C78.6805 80.8151 78.5398 80.8321 78.4319 80.8463C78.1705 80.8804 77.9262 80.9358 77.6989 81.0125C77.4745 81.0864 77.2927 81.1986 77.1535 81.3492C77.0171 81.4969 76.9489 81.6986 76.9489 81.9543C76.9489 82.3037 77.0782 82.5679 77.3367 82.7469C77.5981 82.923 77.929 83.0111 78.3296 83.0111ZM77.5967 76.1247C77.4177 76.1247 77.2586 76.0566 77.1194 75.9202C76.983 75.781 76.9148 75.6219 76.9148 75.4429C76.9148 75.2469 76.983 75.085 77.1194 74.9571C77.2586 74.8264 77.4177 74.7611 77.5967 74.7611C77.7927 74.7611 77.9546 74.8264 78.0824 74.9571C78.2131 75.085 78.2785 75.2469 78.2785 75.4429C78.2785 75.6219 78.2131 75.781 78.0824 75.9202C77.9546 76.0566 77.7927 76.1247 77.5967 76.1247ZM80.0512 76.1247C79.8722 76.1247 79.7131 76.0566 79.5739 75.9202C79.4376 75.781 79.3694 75.6219 79.3694 75.4429C79.3694 75.2469 79.4376 75.085 79.5739 74.9571C79.7131 74.8264 79.8722 74.7611 80.0512 74.7611C80.2472 74.7611 80.4092 74.8264 80.537 74.9571C80.6677 75.085 80.733 75.2469 80.733 75.4429C80.733 75.6219 80.6677 75.781 80.537 75.9202C80.4092 76.0566 80.2472 76.1247 80.0512 76.1247ZM83.0118 83.7611V77.2157H83.9834V78.2043H84.0516C84.1709 77.8804 84.3868 77.6176 84.6993 77.4159C85.0118 77.2142 85.3641 77.1134 85.7561 77.1134C85.83 77.1134 85.9223 77.1148 86.0331 77.1176C86.1439 77.1205 86.2277 77.1247 86.2845 77.1304V78.1532C86.2504 78.1446 86.1723 78.1318 86.0501 78.1148C85.9308 78.0949 85.8044 78.085 85.6709 78.085C85.3527 78.085 85.0686 78.1517 84.8186 78.2853C84.5714 78.4159 84.3754 78.5978 84.2305 78.8307C84.0885 79.0608 84.0175 79.3236 84.0175 79.6191V83.7611H83.0118ZM90.7334 77.2157V78.0679H87.3413V77.2157H90.7334ZM88.33 75.6475H89.3356V81.8861C89.3356 82.1702 89.3768 82.3833 89.4592 82.5253C89.5444 82.6645 89.6524 82.7583 89.7831 82.8066C89.9166 82.852 90.0572 82.8747 90.205 82.8747C90.3158 82.8747 90.4067 82.8691 90.4777 82.8577C90.5487 82.8435 90.6055 82.8321 90.6481 82.8236L90.8527 83.727C90.7845 83.7526 90.6893 83.7782 90.5672 83.8037C90.445 83.8321 90.2902 83.8463 90.1027 83.8463C89.8186 83.8463 89.5402 83.7853 89.2675 83.6631C88.9976 83.5409 88.7731 83.3549 88.5942 83.1049C88.418 82.8549 88.33 82.5395 88.33 82.1588V75.6475ZM95.7575 83.7611V75.0338H96.7632V78.2554H96.8484C96.9223 78.1418 97.0246 77.9969 97.1552 77.8208C97.2888 77.6418 97.4791 77.4827 97.7263 77.3435C97.9763 77.2014 98.3143 77.1304 98.7405 77.1304C99.2916 77.1304 99.7774 77.2682 100.198 77.5438C100.618 77.8193 100.946 78.21 101.182 78.7157C101.418 79.2213 101.536 79.8179 101.536 80.5054C101.536 81.1986 101.418 81.7995 101.182 82.308C100.946 82.8137 100.62 83.2057 100.202 83.4841C99.7845 83.7597 99.303 83.8975 98.7575 83.8975C98.3371 83.8975 98.0004 83.8279 97.7476 83.6887C97.4947 83.5466 97.3001 83.3861 97.1638 83.2071C97.0274 83.0253 96.9223 82.8747 96.8484 82.7554H96.7291V83.7611H95.7575ZM96.7462 80.4884C96.7462 80.9827 96.8186 81.4188 96.9635 81.7966C97.1084 82.1716 97.32 82.4657 97.5984 82.6787C97.8768 82.8889 98.2177 82.9941 98.6212 82.9941C99.0416 82.9941 99.3925 82.8833 99.6737 82.6617C99.9578 82.4372 100.171 82.1361 100.313 81.7583C100.458 81.3776 100.53 80.9543 100.53 80.4884C100.53 80.0282 100.459 79.6134 100.317 79.2441C100.178 78.8719 99.9663 78.5779 99.6822 78.362C99.401 78.1432 99.0473 78.0338 98.6212 78.0338C98.2121 78.0338 97.8683 78.1375 97.5899 78.3449C97.3115 78.5495 97.1013 78.8364 96.9592 79.2057C96.8172 79.5722 96.7462 79.9997 96.7462 80.4884ZM105.733 83.8975C105.142 83.8975 104.624 83.7568 104.178 83.4756C103.735 83.1943 103.388 82.8009 103.138 82.2952C102.891 81.7895 102.767 81.1986 102.767 80.5225C102.767 79.8407 102.891 79.2455 103.138 78.737C103.388 78.2284 103.735 77.8336 104.178 77.5523C104.624 77.2711 105.142 77.1304 105.733 77.1304C106.324 77.1304 106.841 77.2711 107.285 77.5523C107.731 77.8336 108.077 78.2284 108.324 78.737C108.574 79.2455 108.699 79.8407 108.699 80.5225C108.699 81.1986 108.574 81.7895 108.324 82.2952C108.077 82.8009 107.731 83.1943 107.285 83.4756C106.841 83.7568 106.324 83.8975 105.733 83.8975ZM105.733 82.9941C106.182 82.9941 106.552 82.879 106.841 82.6489C107.131 82.4188 107.346 82.1162 107.485 81.7412C107.624 81.3662 107.694 80.96 107.694 80.5225C107.694 80.085 107.624 79.6773 107.485 79.2995C107.346 78.9216 107.131 78.6162 106.841 78.3833C106.552 78.1503 106.182 78.0338 105.733 78.0338C105.285 78.0338 104.915 78.1503 104.625 78.3833C104.336 78.6162 104.121 78.9216 103.982 79.2995C103.843 79.6773 103.773 80.085 103.773 80.5225C103.773 80.96 103.843 81.3662 103.982 81.7412C104.121 82.1162 104.336 82.4188 104.625 82.6489C104.915 82.879 105.285 82.9941 105.733 82.9941ZM111.172 81.3747L111.155 80.1304H111.359L114.223 77.2157H115.467L112.416 80.3009H112.331L111.172 81.3747ZM110.234 83.7611V75.0338H111.24V83.7611H110.234ZM114.394 83.7611L111.837 80.5225L112.553 79.8236L115.672 83.7611H114.394ZM118.688 83.9145C118.273 83.9145 117.897 83.8364 117.559 83.6801C117.221 83.5211 116.952 83.2924 116.753 82.9941C116.554 82.6929 116.455 82.3293 116.455 81.9032C116.455 81.5282 116.529 81.2242 116.677 80.9912C116.824 80.7554 117.022 80.5708 117.269 80.4372C117.516 80.3037 117.789 80.2043 118.087 80.1389C118.388 80.0708 118.691 80.0168 118.995 79.977C119.392 79.9259 119.715 79.8875 119.962 79.862C120.212 79.8336 120.394 79.7867 120.508 79.7213C120.624 79.656 120.682 79.5424 120.682 79.3804V79.3463C120.682 78.9259 120.567 78.5992 120.337 78.3662C120.11 78.1333 119.765 78.0168 119.302 78.0168C118.821 78.0168 118.445 78.1219 118.172 78.3321C117.9 78.5424 117.708 78.7668 117.597 79.0054L116.642 78.6645C116.813 78.2668 117.04 77.9571 117.324 77.7355C117.611 77.5111 117.924 77.3549 118.262 77.2668C118.603 77.1759 118.938 77.1304 119.267 77.1304C119.478 77.1304 119.719 77.156 119.992 77.2071C120.267 77.2554 120.533 77.3563 120.789 77.5097C121.047 77.6631 121.262 77.8946 121.432 78.2043C121.603 78.5139 121.688 78.9287 121.688 79.4486V83.7611H120.682V82.8747H120.631C120.563 83.0168 120.449 83.1688 120.29 83.3307C120.131 83.4926 119.919 83.6304 119.655 83.7441C119.391 83.8577 119.069 83.9145 118.688 83.9145ZM118.841 83.0111C119.239 83.0111 119.574 82.933 119.847 82.7767C120.123 82.6205 120.33 82.4188 120.469 82.1716C120.611 81.9245 120.682 81.6645 120.682 81.3918V80.4713C120.64 80.5225 120.546 80.5693 120.401 80.612C120.259 80.6517 120.094 80.6872 119.907 80.7185C119.722 80.7469 119.542 80.7725 119.365 80.7952C119.192 80.8151 119.052 80.8321 118.944 80.8463C118.682 80.8804 118.438 80.9358 118.211 81.0125C117.986 81.0864 117.804 81.1986 117.665 81.3492C117.529 81.4969 117.461 81.6986 117.461 81.9543C117.461 82.3037 117.59 82.5679 117.848 82.7469C118.11 82.923 118.441 83.0111 118.841 83.0111ZM126.37 77.2157V78.0679H122.978V77.2157H126.37ZM123.967 75.6475H124.972V81.8861C124.972 82.1702 125.014 82.3833 125.096 82.5253C125.181 82.6645 125.289 82.7583 125.42 82.8066C125.553 82.852 125.694 82.8747 125.842 82.8747C125.952 82.8747 126.043 82.8691 126.114 82.8577C126.185 82.8435 126.242 82.8321 126.285 82.8236L126.489 83.727C126.421 83.7526 126.326 83.7782 126.204 83.8037C126.082 83.8321 125.927 83.8463 125.739 83.8463C125.455 83.8463 125.177 83.7853 124.904 83.6631C124.634 83.5409 124.41 83.3549 124.231 83.1049C124.055 82.8549 123.967 82.5395 123.967 82.1588V75.6475Z" fill="#03045E"/>
<path d="M31.527 83.7611V75.0338H34.4759C35.1606 75.0338 35.7202 75.1574 36.1549 75.4046C36.5924 75.6489 36.9163 75.9799 37.1265 76.3975C37.3367 76.8151 37.4418 77.281 37.4418 77.7952C37.4418 78.3094 37.3367 78.7767 37.1265 79.1972C36.9191 79.6176 36.5981 79.9529 36.1634 80.2029C35.7288 80.45 35.1719 80.5736 34.493 80.5736H32.3793V79.6361H34.4589C34.9276 79.6361 35.304 79.5551 35.5881 79.3932C35.8722 79.2313 36.0782 79.0125 36.206 78.737C36.3367 78.4586 36.402 78.1446 36.402 77.7952C36.402 77.4458 36.3367 77.1333 36.206 76.8577C36.0782 76.5821 35.8708 76.3662 35.5839 76.21C35.2969 76.0509 34.9163 75.9713 34.4418 75.9713H32.5839V83.7611H31.527ZM39.0079 83.7611V77.2157H39.9795V78.2043H40.0476C40.167 77.8804 40.3829 77.6176 40.6954 77.4159C41.0079 77.2142 41.3601 77.1134 41.7522 77.1134C41.8261 77.1134 41.9184 77.1148 42.0292 77.1176C42.14 77.1205 42.2238 77.1247 42.2806 77.1304V78.1532C42.2465 78.1446 42.1684 78.1318 42.0462 78.1148C41.9269 78.0949 41.8005 78.085 41.667 78.085C41.3488 78.085 41.0647 78.1517 40.8147 78.2853C40.5675 78.4159 40.3715 78.5978 40.2266 78.8307C40.0846 79.0608 40.0136 79.3236 40.0136 79.6191V83.7611H39.0079ZM46.0178 83.8975C45.3871 83.8975 44.8431 83.7583 44.3857 83.4799C43.9312 83.1986 43.5803 82.8066 43.3332 82.3037C43.0888 81.798 42.9667 81.21 42.9667 80.5395C42.9667 79.8691 43.0888 79.2782 43.3332 78.7668C43.5803 78.2526 43.9241 77.852 44.3644 77.5651C44.8076 77.2753 45.3246 77.1304 45.9155 77.1304C46.2565 77.1304 46.5931 77.1872 46.9255 77.3009C47.2579 77.4145 47.5604 77.5992 47.8332 77.8549C48.1059 78.1077 48.3232 78.4429 48.4851 78.8605C48.6471 79.2782 48.728 79.7924 48.728 80.4032V80.8293H43.6826V79.96H47.7053C47.7053 79.5907 47.6315 79.2611 47.4837 78.9713C47.3388 78.6816 47.1315 78.4529 46.8616 78.2853C46.5945 78.1176 46.2792 78.0338 45.9155 78.0338C45.515 78.0338 45.1684 78.1333 44.8758 78.3321C44.586 78.5282 44.363 78.7838 44.2067 79.0992C44.0505 79.4145 43.9724 79.7526 43.9724 80.1134V80.6929C43.9724 81.1872 44.0576 81.6063 44.228 81.95C44.4013 82.2909 44.6414 82.5509 44.9482 82.7299C45.255 82.906 45.6116 82.9941 46.0178 82.9941C46.282 82.9941 46.5207 82.9571 46.7337 82.8833C46.9496 82.8066 47.1357 82.6929 47.292 82.5424C47.4482 82.3889 47.569 82.1986 47.6542 81.9713L48.6258 82.2441C48.5235 82.5736 48.3516 82.8634 48.1101 83.1134C47.8687 83.3605 47.5704 83.5537 47.2153 83.6929C46.8601 83.8293 46.461 83.8975 46.0178 83.8975ZM51.2636 75.0338V83.7611H50.2579V75.0338H51.2636ZM53.1055 83.7611V77.2157H54.1112V83.7611H53.1055ZM53.6169 76.1247C53.4209 76.1247 53.2518 76.058 53.1098 75.9245C52.9706 75.7909 52.901 75.6304 52.901 75.4429C52.901 75.2554 52.9706 75.0949 53.1098 74.9614C53.2518 74.8279 53.4209 74.7611 53.6169 74.7611C53.8129 74.7611 53.9805 74.8279 54.1197 74.9614C54.2618 75.0949 54.3328 75.2554 54.3328 75.4429C54.3328 75.6304 54.2618 75.7909 54.1197 75.9245C53.9805 76.058 53.8129 76.1247 53.6169 76.1247ZM55.9532 83.7611V77.2157H56.9248V78.2384H57.01C57.1464 77.8889 57.3665 77.6176 57.6705 77.4245C57.9745 77.2284 58.3395 77.1304 58.7657 77.1304C59.1975 77.1304 59.5569 77.2284 59.8438 77.4245C60.1336 77.6176 60.3594 77.8889 60.5214 78.2384H60.5895C60.7572 77.9003 61.0086 77.6318 61.3438 77.433C61.679 77.2313 62.081 77.1304 62.5498 77.1304C63.135 77.1304 63.6137 77.3137 63.9859 77.6801C64.358 78.0438 64.5441 78.6105 64.5441 79.3804V83.7611H63.5384V79.3804C63.5384 78.8975 63.4063 78.5523 63.1421 78.3449C62.8779 78.1375 62.5668 78.0338 62.2089 78.0338C61.7486 78.0338 61.3921 78.173 61.1393 78.4514C60.8864 78.727 60.76 79.0764 60.76 79.4997V83.7611H59.7373V79.2782C59.7373 78.906 59.6165 78.6063 59.3751 78.379C59.1336 78.1489 58.8225 78.0338 58.4418 78.0338C58.1805 78.0338 57.9361 78.1034 57.7089 78.2426C57.4844 78.3818 57.3026 78.575 57.1634 78.8222C57.027 79.0665 56.9589 79.3492 56.9589 79.6702V83.7611H55.9532ZM66.3829 83.7611V77.2157H67.3886V83.7611H66.3829ZM66.8942 76.1247C66.6982 76.1247 66.5292 76.058 66.3871 75.9245C66.2479 75.7909 66.1783 75.6304 66.1783 75.4429C66.1783 75.2554 66.2479 75.0949 66.3871 74.9614C66.5292 74.8279 66.6982 74.7611 66.8942 74.7611C67.0903 74.7611 67.2579 74.8279 67.3971 74.9614C67.5391 75.0949 67.6101 75.2554 67.6101 75.4429C67.6101 75.6304 67.5391 75.7909 67.3971 75.9245C67.2579 76.058 67.0903 76.1247 66.8942 76.1247ZM70.2362 79.8236V83.7611H69.2305V77.2157H70.2021V78.2384H70.2873C70.4408 77.906 70.6737 77.6389 70.9862 77.4372C71.2987 77.2327 71.7021 77.1304 72.1964 77.1304C72.6396 77.1304 73.0274 77.2213 73.3598 77.4032C73.6922 77.5821 73.9507 77.8549 74.1354 78.2213C74.32 78.585 74.4123 79.0452 74.4123 79.602V83.7611H73.4067V79.6702C73.4067 79.156 73.2731 78.7554 73.0061 78.4685C72.7391 78.1787 72.3726 78.0338 71.9067 78.0338C71.5856 78.0338 71.2987 78.1034 71.0459 78.2426C70.7959 78.3818 70.5984 78.585 70.4535 78.852C70.3087 79.1191 70.2362 79.4429 70.2362 79.8236ZM78.1762 83.9145C77.7614 83.9145 77.385 83.8364 77.0469 83.6801C76.7089 83.5211 76.4404 83.2924 76.2415 82.9941C76.0427 82.6929 75.9432 82.3293 75.9432 81.9032C75.9432 81.5282 76.0171 81.2242 76.1648 80.9912C76.3126 80.7554 76.51 80.5708 76.7572 80.4372C77.0043 80.3037 77.277 80.2043 77.5753 80.1389C77.8765 80.0708 78.179 80.0168 78.483 79.977C78.8807 79.9259 79.2032 79.8875 79.4503 79.862C79.7003 79.8336 79.8822 79.7867 79.9958 79.7213C80.1123 79.656 80.1705 79.5424 80.1705 79.3804V79.3463C80.1705 78.9259 80.0555 78.5992 79.8253 78.3662C79.5981 78.1333 79.2529 78.0168 78.7898 78.0168C78.3097 78.0168 77.9333 78.1219 77.6606 78.3321C77.3878 78.5424 77.1961 78.7668 77.0853 79.0054L76.1307 78.6645C76.3012 78.2668 76.5285 77.9571 76.8126 77.7355C77.0995 77.5111 77.412 77.3549 77.7501 77.2668C78.091 77.1759 78.4262 77.1304 78.7557 77.1304C78.966 77.1304 79.2074 77.156 79.4802 77.2071C79.7557 77.2554 80.0214 77.3563 80.277 77.5097C80.5356 77.6631 80.7501 77.8946 80.9205 78.2043C81.091 78.5139 81.1762 78.9287 81.1762 79.4486V83.7611H80.1705V82.8747H80.1194C80.0512 83.0168 79.9376 83.1688 79.7785 83.3307C79.6194 83.4926 79.4077 83.6304 79.1435 83.7441C78.8793 83.8577 78.5569 83.9145 78.1762 83.9145ZM78.3296 83.0111C78.7273 83.0111 79.0626 82.933 79.3353 82.7767C79.6109 82.6205 79.8182 82.4188 79.9574 82.1716C80.0995 81.9245 80.1705 81.6645 80.1705 81.3918V80.4713C80.1279 80.5225 80.0342 80.5693 79.8893 80.612C79.7472 80.6517 79.5824 80.6872 79.3949 80.7185C79.2103 80.7469 79.0299 80.7725 78.8538 80.7952C78.6805 80.8151 78.5398 80.8321 78.4319 80.8463C78.1705 80.8804 77.9262 80.9358 77.6989 81.0125C77.4745 81.0864 77.2927 81.1986 77.1535 81.3492C77.0171 81.4969 76.9489 81.6986 76.9489 81.9543C76.9489 82.3037 77.0782 82.5679 77.3367 82.7469C77.5981 82.923 77.929 83.0111 78.3296 83.0111ZM77.5967 76.1247C77.4177 76.1247 77.2586 76.0566 77.1194 75.9202C76.983 75.781 76.9148 75.6219 76.9148 75.4429C76.9148 75.2469 76.983 75.085 77.1194 74.9571C77.2586 74.8264 77.4177 74.7611 77.5967 74.7611C77.7927 74.7611 77.9546 74.8264 78.0824 74.9571C78.2131 75.085 78.2785 75.2469 78.2785 75.4429C78.2785 75.6219 78.2131 75.781 78.0824 75.9202C77.9546 76.0566 77.7927 76.1247 77.5967 76.1247ZM80.0512 76.1247C79.8722 76.1247 79.7131 76.0566 79.5739 75.9202C79.4376 75.781 79.3694 75.6219 79.3694 75.4429C79.3694 75.2469 79.4376 75.085 79.5739 74.9571C79.7131 74.8264 79.8722 74.7611 80.0512 74.7611C80.2472 74.7611 80.4092 74.8264 80.537 74.9571C80.6677 75.085 80.733 75.2469 80.733 75.4429C80.733 75.6219 80.6677 75.781 80.537 75.9202C80.4092 76.0566 80.2472 76.1247 80.0512 76.1247ZM83.0118 83.7611V77.2157H83.9834V78.2043H84.0516C84.1709 77.8804 84.3868 77.6176 84.6993 77.4159C85.0118 77.2142 85.3641 77.1134 85.7561 77.1134C85.83 77.1134 85.9223 77.1148 86.0331 77.1176C86.1439 77.1205 86.2277 77.1247 86.2845 77.1304V78.1532C86.2504 78.1446 86.1723 78.1318 86.0501 78.1148C85.9308 78.0949 85.8044 78.085 85.6709 78.085C85.3527 78.085 85.0686 78.1517 84.8186 78.2853C84.5714 78.4159 84.3754 78.5978 84.2305 78.8307C84.0885 79.0608 84.0175 79.3236 84.0175 79.6191V83.7611H83.0118ZM90.7334 77.2157V78.0679H87.3413V77.2157H90.7334ZM88.33 75.6475H89.3356V81.8861C89.3356 82.1702 89.3768 82.3833 89.4592 82.5253C89.5444 82.6645 89.6524 82.7583 89.7831 82.8066C89.9166 82.852 90.0572 82.8747 90.205 82.8747C90.3158 82.8747 90.4067 82.8691 90.4777 82.8577C90.5487 82.8435 90.6055 82.8321 90.6481 82.8236L90.8527 83.727C90.7845 83.7526 90.6893 83.7782 90.5672 83.8037C90.445 83.8321 90.2902 83.8463 90.1027 83.8463C89.8186 83.8463 89.5402 83.7853 89.2675 83.6631C88.9976 83.5409 88.7731 83.3549 88.5942 83.1049C88.418 82.8549 88.33 82.5395 88.33 82.1588V75.6475ZM95.7575 83.7611V75.0338H96.7632V78.2554H96.8484C96.9223 78.1418 97.0246 77.9969 97.1552 77.8208C97.2888 77.6418 97.4791 77.4827 97.7263 77.3435C97.9763 77.2014 98.3143 77.1304 98.7405 77.1304C99.2916 77.1304 99.7774 77.2682 100.198 77.5438C100.618 77.8193 100.946 78.21 101.182 78.7157C101.418 79.2213 101.536 79.8179 101.536 80.5054C101.536 81.1986 101.418 81.7995 101.182 82.308C100.946 82.8137 100.62 83.2057 100.202 83.4841C99.7845 83.7597 99.303 83.8975 98.7575 83.8975C98.3371 83.8975 98.0004 83.8279 97.7476 83.6887C97.4947 83.5466 97.3001 83.3861 97.1638 83.2071C97.0274 83.0253 96.9223 82.8747 96.8484 82.7554H96.7291V83.7611H95.7575ZM96.7462 80.4884C96.7462 80.9827 96.8186 81.4188 96.9635 81.7966C97.1084 82.1716 97.32 82.4657 97.5984 82.6787C97.8768 82.8889 98.2177 82.9941 98.6212 82.9941C99.0416 82.9941 99.3925 82.8833 99.6737 82.6617C99.9578 82.4372 100.171 82.1361 100.313 81.7583C100.458 81.3776 100.53 80.9543 100.53 80.4884C100.53 80.0282 100.459 79.6134 100.317 79.2441C100.178 78.8719 99.9663 78.5779 99.6822 78.362C99.401 78.1432 99.0473 78.0338 98.6212 78.0338C98.2121 78.0338 97.8683 78.1375 97.5899 78.3449C97.3115 78.5495 97.1013 78.8364 96.9592 79.2057C96.8172 79.5722 96.7462 79.9997 96.7462 80.4884ZM105.733 83.8975C105.142 83.8975 104.624 83.7568 104.178 83.4756C103.735 83.1943 103.388 82.8009 103.138 82.2952C102.891 81.7895 102.767 81.1986 102.767 80.5225C102.767 79.8407 102.891 79.2455 103.138 78.737C103.388 78.2284 103.735 77.8336 104.178 77.5523C104.624 77.2711 105.142 77.1304 105.733 77.1304C106.324 77.1304 106.841 77.2711 107.285 77.5523C107.731 77.8336 108.077 78.2284 108.324 78.737C108.574 79.2455 108.699 79.8407 108.699 80.5225C108.699 81.1986 108.574 81.7895 108.324 82.2952C108.077 82.8009 107.731 83.1943 107.285 83.4756C106.841 83.7568 106.324 83.8975 105.733 83.8975ZM105.733 82.9941C106.182 82.9941 106.552 82.879 106.841 82.6489C107.131 82.4188 107.346 82.1162 107.485 81.7412C107.624 81.3662 107.694 80.96 107.694 80.5225C107.694 80.085 107.624 79.6773 107.485 79.2995C107.346 78.9216 107.131 78.6162 106.841 78.3833C106.552 78.1503 106.182 78.0338 105.733 78.0338C105.285 78.0338 104.915 78.1503 104.625 78.3833C104.336 78.6162 104.121 78.9216 103.982 79.2995C103.843 79.6773 103.773 80.085 103.773 80.5225C103.773 80.96 103.843 81.3662 103.982 81.7412C104.121 82.1162 104.336 82.4188 104.625 82.6489C104.915 82.879 105.285 82.9941 105.733 82.9941ZM111.172 81.3747L111.155 80.1304H111.359L114.223 77.2157H115.467L112.416 80.3009H112.331L111.172 81.3747ZM110.234 83.7611V75.0338H111.24V83.7611H110.234ZM114.394 83.7611L111.837 80.5225L112.553 79.8236L115.672 83.7611H114.394ZM118.688 83.9145C118.273 83.9145 117.897 83.8364 117.559 83.6801C117.221 83.5211 116.952 83.2924 116.753 82.9941C116.554 82.6929 116.455 82.3293 116.455 81.9032C116.455 81.5282 116.529 81.2242 116.677 80.9912C116.824 80.7554 117.022 80.5708 117.269 80.4372C117.516 80.3037 117.789 80.2043 118.087 80.1389C118.388 80.0708 118.691 80.0168 118.995 79.977C119.392 79.9259 119.715 79.8875 119.962 79.862C120.212 79.8336 120.394 79.7867 120.508 79.7213C120.624 79.656 120.682 79.5424 120.682 79.3804V79.3463C120.682 78.9259 120.567 78.5992 120.337 78.3662C120.11 78.1333 119.765 78.0168 119.302 78.0168C118.821 78.0168 118.445 78.1219 118.172 78.3321C117.9 78.5424 117.708 78.7668 117.597 79.0054L116.642 78.6645C116.813 78.2668 117.04 77.9571 117.324 77.7355C117.611 77.5111 117.924 77.3549 118.262 77.2668C118.603 77.1759 118.938 77.1304 119.267 77.1304C119.478 77.1304 119.719 77.156 119.992 77.2071C120.267 77.2554 120.533 77.3563 120.789 77.5097C121.047 77.6631 121.262 77.8946 121.432 78.2043C121.603 78.5139 121.688 78.9287 121.688 79.4486V83.7611H120.682V82.8747H120.631C120.563 83.0168 120.449 83.1688 120.29 83.3307C120.131 83.4926 119.919 83.6304 119.655 83.7441C119.391 83.8577 119.069 83.9145 118.688 83.9145ZM118.841 83.0111C119.239 83.0111 119.574 82.933 119.847 82.7767C120.123 82.6205 120.33 82.4188 120.469 82.1716C120.611 81.9245 120.682 81.6645 120.682 81.3918V80.4713C120.64 80.5225 120.546 80.5693 120.401 80.612C120.259 80.6517 120.094 80.6872 119.907 80.7185C119.722 80.7469 119.542 80.7725 119.365 80.7952C119.192 80.8151 119.052 80.8321 118.944 80.8463C118.682 80.8804 118.438 80.9358 118.211 81.0125C117.986 81.0864 117.804 81.1986 117.665 81.3492C117.529 81.4969 117.461 81.6986 117.461 81.9543C117.461 82.3037 117.59 82.5679 117.848 82.7469C118.11 82.923 118.441 83.0111 118.841 83.0111ZM126.37 77.2157V78.0679H122.978V77.2157H126.37ZM123.967 75.6475H124.972V81.8861C124.972 82.1702 125.014 82.3833 125.096 82.5253C125.181 82.6645 125.289 82.7583 125.42 82.8066C125.553 82.852 125.694 82.8747 125.842 82.8747C125.952 82.8747 126.043 82.8691 126.114 82.8577C126.185 82.8435 126.242 82.8321 126.285 82.8236L126.489 83.727C126.421 83.7526 126.326 83.7782 126.204 83.8037C126.082 83.8321 125.927 83.8463 125.739 83.8463C125.455 83.8463 125.177 83.7853 124.904 83.6631C124.634 83.5409 124.41 83.3549 124.231 83.1049C124.055 82.8549 123.967 82.5395 123.967 82.1588V75.6475Z" fill="black" fill-opacity="0.2"/>
</svg>
