<svg width="117" height="64" viewBox="0 0 117 64" fill="none" xmlns="http://www.w3.org/2000/svg">
<path d="M44 63.0318L60.5 41.6823L77 20.3328" fill="#03045E"/>
<path d="M44 63.0318L60.5 41.6823L77 20.3328" fill="black" fill-opacity="0.2"/>
<path d="M44 63.0318L60.5 41.6823L77 20.3328" stroke="#03045E"/>
<path d="M44 63.0318L60.5 41.6823L77 20.3328" stroke="black" stroke-opacity="0.2"/>
<path d="M51.7404 12V3.27273H54.7915C55.3995 3.27273 55.9009 3.37784 56.2958 3.58807C56.6907 3.79545 56.9847 4.07528 57.1779 4.42756C57.3711 4.77699 57.4677 5.16477 57.4677 5.59091C57.4677 5.96591 57.4009 6.27557 57.2674 6.51989C57.1367 6.7642 56.9634 6.95739 56.7475 7.09943C56.5344 7.24148 56.3029 7.34659 56.0529 7.41477V7.5C56.32 7.51705 56.5884 7.6108 56.8583 7.78125C57.1282 7.9517 57.354 8.19602 57.5359 8.5142C57.7177 8.83239 57.8086 9.22159 57.8086 9.68182C57.8086 10.1193 57.7092 10.5128 57.5103 10.8622C57.3114 11.2116 56.9975 11.4886 56.5685 11.6932C56.1396 11.8977 55.5813 12 54.8938 12H51.7404ZM52.7972 11.0625H54.8938C55.5842 11.0625 56.0742 10.929 56.364 10.6619C56.6566 10.392 56.8029 10.0653 56.8029 9.68182C56.8029 9.38636 56.7276 9.11364 56.5771 8.86364C56.4265 8.6108 56.212 8.40909 55.9336 8.25852C55.6552 8.10511 55.3256 8.02841 54.945 8.02841H52.7972V11.0625ZM52.7972 7.10795H54.7575C55.0756 7.10795 55.3626 7.04545 55.6183 6.92045C55.8768 6.79545 56.0813 6.61932 56.2319 6.39205C56.3853 6.16477 56.462 5.89773 56.462 5.59091C56.462 5.20739 56.3285 4.8821 56.0614 4.61506C55.7944 4.34517 55.3711 4.21023 54.7915 4.21023H52.7972V7.10795ZM62.0678 12.1364C61.4769 12.1364 60.9585 11.9957 60.5124 11.7145C60.0692 11.4332 59.7227 11.0398 59.4727 10.5341C59.2255 10.0284 59.1019 9.4375 59.1019 8.76136C59.1019 8.07955 59.2255 7.48437 59.4727 6.97585C59.7227 6.46733 60.0692 6.07244 60.5124 5.79119C60.9585 5.50994 61.4769 5.36932 62.0678 5.36932C62.6587 5.36932 63.1758 5.50994 63.619 5.79119C64.065 6.07244 64.4116 6.46733 64.6587 6.97585C64.9087 7.48437 65.0337 8.07955 65.0337 8.76136C65.0337 9.4375 64.9087 10.0284 64.6587 10.5341C64.4116 11.0398 64.065 11.4332 63.619 11.7145C63.1758 11.9957 62.6587 12.1364 62.0678 12.1364ZM62.0678 11.233C62.5167 11.233 62.886 11.1179 63.1758 10.8878C63.4656 10.6577 63.68 10.3551 63.8192 9.98011C63.9585 9.60511 64.0281 9.19886 64.0281 8.76136C64.0281 8.32386 63.9585 7.91619 63.8192 7.53835C63.68 7.16051 63.4656 6.85511 63.1758 6.62216C62.886 6.3892 62.5167 6.27273 62.0678 6.27273C61.619 6.27273 61.2496 6.3892 60.9599 6.62216C60.6701 6.85511 60.4556 7.16051 60.3164 7.53835C60.1772 7.91619 60.1076 8.32386 60.1076 8.76136C60.1076 9.19886 60.1772 9.60511 60.3164 9.98011C60.4556 10.3551 60.6701 10.6577 60.9599 10.8878C61.2496 11.1179 61.619 11.233 62.0678 11.233ZM67.5064 9.61364L67.4893 8.36932H67.6939L70.5575 5.45455H71.8018L68.7507 8.53977H68.6655L67.5064 9.61364ZM66.5689 12V3.27273H67.5746V12H66.5689ZM70.728 12L68.1712 8.76136L68.8871 8.0625L72.0064 12H70.728ZM75.0224 12.1534C74.6076 12.1534 74.2312 12.0753 73.8931 11.919C73.555 11.7599 73.2866 11.5312 73.0877 11.233C72.8888 10.9318 72.7894 10.5682 72.7894 10.142C72.7894 9.76705 72.8633 9.46307 73.011 9.23011C73.1587 8.99432 73.3562 8.80966 73.6033 8.67614C73.8505 8.54261 74.1232 8.44318 74.4215 8.37784C74.7227 8.30966 75.0252 8.25568 75.3292 8.21591C75.7269 8.16477 76.0494 8.12642 76.2965 8.10085C76.5465 8.07244 76.7283 8.02557 76.842 7.96023C76.9585 7.89489 77.0167 7.78125 77.0167 7.61932V7.58523C77.0167 7.16477 76.9016 6.83807 76.6715 6.60511C76.4442 6.37216 76.0991 6.25568 75.636 6.25568C75.1559 6.25568 74.7795 6.3608 74.5067 6.57102C74.234 6.78125 74.0423 7.00568 73.9315 7.24432L72.9769 6.90341C73.1474 6.50568 73.3746 6.19602 73.6587 5.97443C73.9457 5.75 74.2582 5.59375 74.5962 5.50568C74.9371 5.41477 75.2724 5.36932 75.6019 5.36932C75.8121 5.36932 76.0536 5.39489 76.3263 5.44602C76.6019 5.49432 76.8675 5.59517 77.1232 5.74858C77.3817 5.90199 77.5962 6.13352 77.7667 6.44318C77.9371 6.75284 78.0224 7.16761 78.0224 7.6875V12H77.0167V11.1136H76.9656C76.8974 11.2557 76.7837 11.4077 76.6246 11.5696C76.4656 11.7315 76.2539 11.8693 75.9897 11.983C75.7255 12.0966 75.4031 12.1534 75.0224 12.1534ZM75.1758 11.25C75.5735 11.25 75.9087 11.1719 76.1815 11.0156C76.457 10.8594 76.6644 10.6577 76.8036 10.4105C76.9457 10.1634 77.0167 9.90341 77.0167 9.63068V8.71023C76.9741 8.76136 76.8803 8.80824 76.7354 8.85085C76.5934 8.89062 76.4286 8.92614 76.2411 8.95739C76.0565 8.9858 75.8761 9.01136 75.6999 9.03409C75.5266 9.05398 75.386 9.07102 75.2781 9.08523C75.0167 9.11932 74.7724 9.17472 74.5451 9.25142C74.3207 9.32528 74.1388 9.4375 73.9996 9.58807C73.8633 9.7358 73.7951 9.9375 73.7951 10.1932C73.7951 10.5426 73.9244 10.8068 74.1829 10.9858C74.4442 11.1619 74.7752 11.25 75.1758 11.25ZM82.7045 5.45455V6.30682H79.3125V5.45455H82.7045ZM80.3011 3.88636H81.3068V10.125C81.3068 10.4091 81.348 10.6222 81.4304 10.7642C81.5156 10.9034 81.6236 10.9972 81.7543 11.0455C81.8878 11.0909 82.0284 11.1136 82.1761 11.1136C82.2869 11.1136 82.3778 11.108 82.4489 11.0966C82.5199 11.0824 82.5767 11.071 82.6193 11.0625L82.8239 11.9659C82.7557 11.9915 82.6605 12.017 82.5384 12.0426C82.4162 12.071 82.2614 12.0852 82.0739 12.0852C81.7898 12.0852 81.5114 12.0241 81.2386 11.902C80.9688 11.7798 80.7443 11.5938 80.5653 11.3438C80.3892 11.0938 80.3011 10.7784 80.3011 10.3977V3.88636ZM90.6435 3.27273V12H89.5866V4.38068H89.5355L87.4048 5.79545V4.72159L89.5866 3.27273H90.6435ZM96 12.1193C95.358 12.1193 94.8111 11.9446 94.3594 11.5952C93.9077 11.2429 93.5625 10.733 93.3239 10.0653C93.0852 9.39489 92.9659 8.58523 92.9659 7.63636C92.9659 6.69318 93.0852 5.88778 93.3239 5.22017C93.5653 4.54972 93.9119 4.03835 94.3636 3.68608C94.8182 3.33097 95.3636 3.15341 96 3.15341C96.6364 3.15341 97.1804 3.33097 97.6321 3.68608C98.0866 4.03835 98.4332 4.54972 98.6719 5.22017C98.9134 5.88778 99.0341 6.69318 99.0341 7.63636C99.0341 8.58523 98.9148 9.39489 98.6761 10.0653C98.4375 10.733 98.0923 11.2429 97.6406 11.5952C97.1889 11.9446 96.642 12.1193 96 12.1193ZM96 11.1818C96.6364 11.1818 97.1307 10.875 97.483 10.2614C97.8352 9.64773 98.0114 8.77273 98.0114 7.63636C98.0114 6.88068 97.9304 6.23722 97.7685 5.70597C97.6094 5.17472 97.3793 4.76989 97.0781 4.49148C96.7798 4.21307 96.4205 4.07386 96 4.07386C95.3693 4.07386 94.8764 4.38494 94.5213 5.0071C94.1662 5.62642 93.9886 6.50284 93.9886 7.63636C93.9886 8.39205 94.0682 9.03409 94.2273 9.5625C94.3864 10.0909 94.6151 10.4929 94.9134 10.7685C95.2145 11.044 95.5767 11.1818 96 11.1818ZM103.5 12.1193C102.858 12.1193 102.311 11.9446 101.859 11.5952C101.408 11.2429 101.063 10.733 100.824 10.0653C100.585 9.39489 100.466 8.58523 100.466 7.63636C100.466 6.69318 100.585 5.88778 100.824 5.22017C101.065 4.54972 101.412 4.03835 101.864 3.68608C102.318 3.33097 102.864 3.15341 103.5 3.15341C104.136 3.15341 104.68 3.33097 105.132 3.68608C105.587 4.03835 105.933 4.54972 106.172 5.22017C106.413 5.88778 106.534 6.69318 106.534 7.63636C106.534 8.58523 106.415 9.39489 106.176 10.0653C105.938 10.733 105.592 11.2429 105.141 11.5952C104.689 11.9446 104.142 12.1193 103.5 12.1193ZM103.5 11.1818C104.136 11.1818 104.631 10.875 104.983 10.2614C105.335 9.64773 105.511 8.77273 105.511 7.63636C105.511 6.88068 105.43 6.23722 105.268 5.70597C105.109 5.17472 104.879 4.76989 104.578 4.49148C104.28 4.21307 103.92 4.07386 103.5 4.07386C102.869 4.07386 102.376 4.38494 102.021 5.0071C101.666 5.62642 101.489 6.50284 101.489 7.63636C101.489 8.39205 101.568 9.03409 101.727 9.5625C101.886 10.0909 102.115 10.4929 102.413 10.7685C102.714 11.044 103.077 11.1818 103.5 11.1818ZM112.602 10.3636V9.90341C112.602 9.58523 112.668 9.29403 112.798 9.02983C112.932 8.76278 113.125 8.54972 113.378 8.39062C113.634 8.22869 113.943 8.14773 114.307 8.14773C114.676 8.14773 114.986 8.22869 115.236 8.39062C115.486 8.54972 115.675 8.76278 115.803 9.02983C115.93 9.29403 115.994 9.58523 115.994 9.90341V10.3636C115.994 10.6818 115.929 10.9744 115.798 11.2415C115.67 11.5057 115.48 11.7187 115.227 11.8807C114.977 12.0398 114.67 12.1193 114.307 12.1193C113.938 12.1193 113.626 12.0398 113.374 11.8807C113.121 11.7187 112.929 11.5057 112.798 11.2415C112.668 10.9744 112.602 10.6818 112.602 10.3636ZM113.472 9.90341V10.3636C113.472 10.6278 113.534 10.8651 113.659 11.0753C113.784 11.2827 114 11.3864 114.307 11.3864C114.605 11.3864 114.815 11.2827 114.938 11.0753C115.062 10.8651 115.125 10.6278 115.125 10.3636V9.90341C115.125 9.6392 115.065 9.40341 114.946 9.19602C114.827 8.9858 114.614 8.88068 114.307 8.88068C114.009 8.88068 113.794 8.9858 113.663 9.19602C113.536 9.40341 113.472 9.6392 113.472 9.90341ZM108.256 5.36932V4.90909C108.256 4.59091 108.321 4.29972 108.452 4.03551C108.585 3.76847 108.778 3.5554 109.031 3.39631C109.287 3.23437 109.597 3.15341 109.96 3.15341C110.33 3.15341 110.639 3.23437 110.889 3.39631C111.139 3.5554 111.328 3.76847 111.456 4.03551C111.584 4.29972 111.648 4.59091 111.648 4.90909V5.36932C111.648 5.6875 111.582 5.98011 111.452 6.24716C111.324 6.51136 111.134 6.72443 110.881 6.88636C110.631 7.04545 110.324 7.125 109.96 7.125C109.591 7.125 109.28 7.04545 109.027 6.88636C108.774 6.72443 108.582 6.51136 108.452 6.24716C108.321 5.98011 108.256 5.6875 108.256 5.36932ZM109.125 4.90909V5.36932C109.125 5.63352 109.188 5.87074 109.312 6.08097C109.438 6.28835 109.653 6.39205 109.96 6.39205C110.259 6.39205 110.469 6.28835 110.591 6.08097C110.716 5.87074 110.778 5.63352 110.778 5.36932V4.90909C110.778 4.64489 110.719 4.40909 110.599 4.2017C110.48 3.99148 110.267 3.88636 109.96 3.88636C109.662 3.88636 109.447 3.99148 109.317 4.2017C109.189 4.40909 109.125 4.64489 109.125 4.90909ZM108.58 12L114.58 3.27273H115.551L109.551 12H108.58Z" fill="#03045E"/>
<path d="M51.7404 12V3.27273H54.7915C55.3995 3.27273 55.9009 3.37784 56.2958 3.58807C56.6907 3.79545 56.9847 4.07528 57.1779 4.42756C57.3711 4.77699 57.4677 5.16477 57.4677 5.59091C57.4677 5.96591 57.4009 6.27557 57.2674 6.51989C57.1367 6.7642 56.9634 6.95739 56.7475 7.09943C56.5344 7.24148 56.3029 7.34659 56.0529 7.41477V7.5C56.32 7.51705 56.5884 7.6108 56.8583 7.78125C57.1282 7.9517 57.354 8.19602 57.5359 8.5142C57.7177 8.83239 57.8086 9.22159 57.8086 9.68182C57.8086 10.1193 57.7092 10.5128 57.5103 10.8622C57.3114 11.2116 56.9975 11.4886 56.5685 11.6932C56.1396 11.8977 55.5813 12 54.8938 12H51.7404ZM52.7972 11.0625H54.8938C55.5842 11.0625 56.0742 10.929 56.364 10.6619C56.6566 10.392 56.8029 10.0653 56.8029 9.68182C56.8029 9.38636 56.7276 9.11364 56.5771 8.86364C56.4265 8.6108 56.212 8.40909 55.9336 8.25852C55.6552 8.10511 55.3256 8.02841 54.945 8.02841H52.7972V11.0625ZM52.7972 7.10795H54.7575C55.0756 7.10795 55.3626 7.04545 55.6183 6.92045C55.8768 6.79545 56.0813 6.61932 56.2319 6.39205C56.3853 6.16477 56.462 5.89773 56.462 5.59091C56.462 5.20739 56.3285 4.8821 56.0614 4.61506C55.7944 4.34517 55.3711 4.21023 54.7915 4.21023H52.7972V7.10795ZM62.0678 12.1364C61.4769 12.1364 60.9585 11.9957 60.5124 11.7145C60.0692 11.4332 59.7227 11.0398 59.4727 10.5341C59.2255 10.0284 59.1019 9.4375 59.1019 8.76136C59.1019 8.07955 59.2255 7.48437 59.4727 6.97585C59.7227 6.46733 60.0692 6.07244 60.5124 5.79119C60.9585 5.50994 61.4769 5.36932 62.0678 5.36932C62.6587 5.36932 63.1758 5.50994 63.619 5.79119C64.065 6.07244 64.4116 6.46733 64.6587 6.97585C64.9087 7.48437 65.0337 8.07955 65.0337 8.76136C65.0337 9.4375 64.9087 10.0284 64.6587 10.5341C64.4116 11.0398 64.065 11.4332 63.619 11.7145C63.1758 11.9957 62.6587 12.1364 62.0678 12.1364ZM62.0678 11.233C62.5167 11.233 62.886 11.1179 63.1758 10.8878C63.4656 10.6577 63.68 10.3551 63.8192 9.98011C63.9585 9.60511 64.0281 9.19886 64.0281 8.76136C64.0281 8.32386 63.9585 7.91619 63.8192 7.53835C63.68 7.16051 63.4656 6.85511 63.1758 6.62216C62.886 6.3892 62.5167 6.27273 62.0678 6.27273C61.619 6.27273 61.2496 6.3892 60.9599 6.62216C60.6701 6.85511 60.4556 7.16051 60.3164 7.53835C60.1772 7.91619 60.1076 8.32386 60.1076 8.76136C60.1076 9.19886 60.1772 9.60511 60.3164 9.98011C60.4556 10.3551 60.6701 10.6577 60.9599 10.8878C61.2496 11.1179 61.619 11.233 62.0678 11.233ZM67.5064 9.61364L67.4893 8.36932H67.6939L70.5575 5.45455H71.8018L68.7507 8.53977H68.6655L67.5064 9.61364ZM66.5689 12V3.27273H67.5746V12H66.5689ZM70.728 12L68.1712 8.76136L68.8871 8.0625L72.0064 12H70.728ZM75.0224 12.1534C74.6076 12.1534 74.2312 12.0753 73.8931 11.919C73.555 11.7599 73.2866 11.5312 73.0877 11.233C72.8888 10.9318 72.7894 10.5682 72.7894 10.142C72.7894 9.76705 72.8633 9.46307 73.011 9.23011C73.1587 8.99432 73.3562 8.80966 73.6033 8.67614C73.8505 8.54261 74.1232 8.44318 74.4215 8.37784C74.7227 8.30966 75.0252 8.25568 75.3292 8.21591C75.7269 8.16477 76.0494 8.12642 76.2965 8.10085C76.5465 8.07244 76.7283 8.02557 76.842 7.96023C76.9585 7.89489 77.0167 7.78125 77.0167 7.61932V7.58523C77.0167 7.16477 76.9016 6.83807 76.6715 6.60511C76.4442 6.37216 76.0991 6.25568 75.636 6.25568C75.1559 6.25568 74.7795 6.3608 74.5067 6.57102C74.234 6.78125 74.0423 7.00568 73.9315 7.24432L72.9769 6.90341C73.1474 6.50568 73.3746 6.19602 73.6587 5.97443C73.9457 5.75 74.2582 5.59375 74.5962 5.50568C74.9371 5.41477 75.2724 5.36932 75.6019 5.36932C75.8121 5.36932 76.0536 5.39489 76.3263 5.44602C76.6019 5.49432 76.8675 5.59517 77.1232 5.74858C77.3817 5.90199 77.5962 6.13352 77.7667 6.44318C77.9371 6.75284 78.0224 7.16761 78.0224 7.6875V12H77.0167V11.1136H76.9656C76.8974 11.2557 76.7837 11.4077 76.6246 11.5696C76.4656 11.7315 76.2539 11.8693 75.9897 11.983C75.7255 12.0966 75.4031 12.1534 75.0224 12.1534ZM75.1758 11.25C75.5735 11.25 75.9087 11.1719 76.1815 11.0156C76.457 10.8594 76.6644 10.6577 76.8036 10.4105C76.9457 10.1634 77.0167 9.90341 77.0167 9.63068V8.71023C76.9741 8.76136 76.8803 8.80824 76.7354 8.85085C76.5934 8.89062 76.4286 8.92614 76.2411 8.95739C76.0565 8.9858 75.8761 9.01136 75.6999 9.03409C75.5266 9.05398 75.386 9.07102 75.2781 9.08523C75.0167 9.11932 74.7724 9.17472 74.5451 9.25142C74.3207 9.32528 74.1388 9.4375 73.9996 9.58807C73.8633 9.7358 73.7951 9.9375 73.7951 10.1932C73.7951 10.5426 73.9244 10.8068 74.1829 10.9858C74.4442 11.1619 74.7752 11.25 75.1758 11.25ZM82.7045 5.45455V6.30682H79.3125V5.45455H82.7045ZM80.3011 3.88636H81.3068V10.125C81.3068 10.4091 81.348 10.6222 81.4304 10.7642C81.5156 10.9034 81.6236 10.9972 81.7543 11.0455C81.8878 11.0909 82.0284 11.1136 82.1761 11.1136C82.2869 11.1136 82.3778 11.108 82.4489 11.0966C82.5199 11.0824 82.5767 11.071 82.6193 11.0625L82.8239 11.9659C82.7557 11.9915 82.6605 12.017 82.5384 12.0426C82.4162 12.071 82.2614 12.0852 82.0739 12.0852C81.7898 12.0852 81.5114 12.0241 81.2386 11.902C80.9688 11.7798 80.7443 11.5938 80.5653 11.3438C80.3892 11.0938 80.3011 10.7784 80.3011 10.3977V3.88636ZM90.6435 3.27273V12H89.5866V4.38068H89.5355L87.4048 5.79545V4.72159L89.5866 3.27273H90.6435ZM96 12.1193C95.358 12.1193 94.8111 11.9446 94.3594 11.5952C93.9077 11.2429 93.5625 10.733 93.3239 10.0653C93.0852 9.39489 92.9659 8.58523 92.9659 7.63636C92.9659 6.69318 93.0852 5.88778 93.3239 5.22017C93.5653 4.54972 93.9119 4.03835 94.3636 3.68608C94.8182 3.33097 95.3636 3.15341 96 3.15341C96.6364 3.15341 97.1804 3.33097 97.6321 3.68608C98.0866 4.03835 98.4332 4.54972 98.6719 5.22017C98.9134 5.88778 99.0341 6.69318 99.0341 7.63636C99.0341 8.58523 98.9148 9.39489 98.6761 10.0653C98.4375 10.733 98.0923 11.2429 97.6406 11.5952C97.1889 11.9446 96.642 12.1193 96 12.1193ZM96 11.1818C96.6364 11.1818 97.1307 10.875 97.483 10.2614C97.8352 9.64773 98.0114 8.77273 98.0114 7.63636C98.0114 6.88068 97.9304 6.23722 97.7685 5.70597C97.6094 5.17472 97.3793 4.76989 97.0781 4.49148C96.7798 4.21307 96.4205 4.07386 96 4.07386C95.3693 4.07386 94.8764 4.38494 94.5213 5.0071C94.1662 5.62642 93.9886 6.50284 93.9886 7.63636C93.9886 8.39205 94.0682 9.03409 94.2273 9.5625C94.3864 10.0909 94.6151 10.4929 94.9134 10.7685C95.2145 11.044 95.5767 11.1818 96 11.1818ZM103.5 12.1193C102.858 12.1193 102.311 11.9446 101.859 11.5952C101.408 11.2429 101.063 10.733 100.824 10.0653C100.585 9.39489 100.466 8.58523 100.466 7.63636C100.466 6.69318 100.585 5.88778 100.824 5.22017C101.065 4.54972 101.412 4.03835 101.864 3.68608C102.318 3.33097 102.864 3.15341 103.5 3.15341C104.136 3.15341 104.68 3.33097 105.132 3.68608C105.587 4.03835 105.933 4.54972 106.172 5.22017C106.413 5.88778 106.534 6.69318 106.534 7.63636C106.534 8.58523 106.415 9.39489 106.176 10.0653C105.938 10.733 105.592 11.2429 105.141 11.5952C104.689 11.9446 104.142 12.1193 103.5 12.1193ZM103.5 11.1818C104.136 11.1818 104.631 10.875 104.983 10.2614C105.335 9.64773 105.511 8.77273 105.511 7.63636C105.511 6.88068 105.43 6.23722 105.268 5.70597C105.109 5.17472 104.879 4.76989 104.578 4.49148C104.28 4.21307 103.92 4.07386 103.5 4.07386C102.869 4.07386 102.376 4.38494 102.021 5.0071C101.666 5.62642 101.489 6.50284 101.489 7.63636C101.489 8.39205 101.568 9.03409 101.727 9.5625C101.886 10.0909 102.115 10.4929 102.413 10.7685C102.714 11.044 103.077 11.1818 103.5 11.1818ZM112.602 10.3636V9.90341C112.602 9.58523 112.668 9.29403 112.798 9.02983C112.932 8.76278 113.125 8.54972 113.378 8.39062C113.634 8.22869 113.943 8.14773 114.307 8.14773C114.676 8.14773 114.986 8.22869 115.236 8.39062C115.486 8.54972 115.675 8.76278 115.803 9.02983C115.93 9.29403 115.994 9.58523 115.994 9.90341V10.3636C115.994 10.6818 115.929 10.9744 115.798 11.2415C115.67 11.5057 115.48 11.7187 115.227 11.8807C114.977 12.0398 114.67 12.1193 114.307 12.1193C113.938 12.1193 113.626 12.0398 113.374 11.8807C113.121 11.7187 112.929 11.5057 112.798 11.2415C112.668 10.9744 112.602 10.6818 112.602 10.3636ZM113.472 9.90341V10.3636C113.472 10.6278 113.534 10.8651 113.659 11.0753C113.784 11.2827 114 11.3864 114.307 11.3864C114.605 11.3864 114.815 11.2827 114.938 11.0753C115.062 10.8651 115.125 10.6278 115.125 10.3636V9.90341C115.125 9.6392 115.065 9.40341 114.946 9.19602C114.827 8.9858 114.614 8.88068 114.307 8.88068C114.009 8.88068 113.794 8.9858 113.663 9.19602C113.536 9.40341 113.472 9.6392 113.472 9.90341ZM108.256 5.36932V4.90909C108.256 4.59091 108.321 4.29972 108.452 4.03551C108.585 3.76847 108.778 3.5554 109.031 3.39631C109.287 3.23437 109.597 3.15341 109.96 3.15341C110.33 3.15341 110.639 3.23437 110.889 3.39631C111.139 3.5554 111.328 3.76847 111.456 4.03551C111.584 4.29972 111.648 4.59091 111.648 4.90909V5.36932C111.648 5.6875 111.582 5.98011 111.452 6.24716C111.324 6.51136 111.134 6.72443 110.881 6.88636C110.631 7.04545 110.324 7.125 109.96 7.125C109.591 7.125 109.28 7.04545 109.027 6.88636C108.774 6.72443 108.582 6.51136 108.452 6.24716C108.321 5.98011 108.256 5.6875 108.256 5.36932ZM109.125 4.90909V5.36932C109.125 5.63352 109.188 5.87074 109.312 6.08097C109.438 6.28835 109.653 6.39205 109.96 6.39205C110.259 6.39205 110.469 6.28835 110.591 6.08097C110.716 5.87074 110.778 5.63352 110.778 5.36932V4.90909C110.778 4.64489 110.719 4.40909 110.599 4.2017C110.48 3.99148 110.267 3.88636 109.96 3.88636C109.662 3.88636 109.447 3.99148 109.317 4.2017C109.189 4.40909 109.125 4.64489 109.125 4.90909ZM108.58 12L114.58 3.27273H115.551L109.551 12H108.58Z" fill="black" fill-opacity="0.2"/>
</svg>
