<svg width="73" height="51" viewBox="0 0 73 51" fill="none" xmlns="http://www.w3.org/2000/svg">
<path d="M45 30.979L1 0.479736L45 30.979Z" fill="#03045E"/>
<path d="M45 30.979L1 0.479736L45 30.979Z" fill="black" fill-opacity="0.2"/>
<path d="M45 30.979L1 0.479736" stroke="#03045E"/>
<path d="M45 30.979L1 0.479736" stroke="black" stroke-opacity="0.2"/>
<path d="M13.5178 47.0455V38.3183H16.5689C17.1768 38.3183 17.6783 38.4234 18.0732 38.6336C18.468 38.841 18.7621 39.1208 18.9553 39.4731C19.1484 39.8225 19.245 40.2103 19.245 40.6364C19.245 41.0114 19.1783 41.3211 19.0447 41.5654C18.9141 41.8097 18.7408 42.0029 18.5249 42.145C18.3118 42.287 18.0803 42.3921 17.8303 42.4603V42.5455C18.0973 42.5626 18.3658 42.6563 18.6357 42.8268C18.9055 42.9972 19.1314 43.2416 19.3132 43.5597C19.495 43.8779 19.5859 44.2671 19.5859 44.7274C19.5859 45.1649 19.4865 45.5583 19.2876 45.9077C19.0888 46.2572 18.7749 46.5342 18.3459 46.7387C17.9169 46.9433 17.3587 47.0455 16.6712 47.0455H13.5178ZM14.5746 46.108H16.6712C17.3615 46.108 17.8516 45.9745 18.1413 45.7075C18.4339 45.4376 18.5803 45.1109 18.5803 44.7274C18.5803 44.4319 18.505 44.1592 18.3544 43.9092C18.2038 43.6563 17.9893 43.4546 17.7109 43.3041C17.4325 43.1506 17.103 43.0739 16.7223 43.0739H14.5746V46.108ZM14.5746 42.1535H16.5348C16.853 42.1535 17.1399 42.091 17.3956 41.966C17.6541 41.841 17.8587 41.6649 18.0092 41.4376C18.1626 41.2103 18.2393 40.9433 18.2393 40.6364C18.2393 40.2529 18.1058 39.9276 17.8388 39.6606C17.5717 39.3907 17.1484 39.2558 16.5689 39.2558H14.5746V42.1535ZM23.8452 47.1819C23.2543 47.1819 22.7358 47.0413 22.2898 46.76C21.8466 46.4788 21.5 46.0853 21.25 45.5796C21.0028 45.0739 20.8793 44.483 20.8793 43.8069C20.8793 43.1251 21.0028 42.5299 21.25 42.0214C21.5 41.5129 21.8466 41.118 22.2898 40.8367C22.7358 40.5555 23.2543 40.4149 23.8452 40.4149C24.4361 40.4149 24.9531 40.5555 25.3963 40.8367C25.8423 41.118 26.1889 41.5129 26.4361 42.0214C26.6861 42.5299 26.8111 43.1251 26.8111 43.8069C26.8111 44.483 26.6861 45.0739 26.4361 45.5796C26.1889 46.0853 25.8423 46.4788 25.3963 46.76C24.9531 47.0413 24.4361 47.1819 23.8452 47.1819ZM23.8452 46.2785C24.294 46.2785 24.6634 46.1634 24.9531 45.9333C25.2429 45.7032 25.4574 45.4006 25.5966 45.0256C25.7358 44.6506 25.8054 44.2444 25.8054 43.8069C25.8054 43.3694 25.7358 42.9617 25.5966 42.5839C25.4574 42.206 25.2429 41.9006 24.9531 41.6677C24.6634 41.4347 24.294 41.3183 23.8452 41.3183C23.3963 41.3183 23.027 41.4347 22.7372 41.6677C22.4474 41.9006 22.233 42.206 22.0938 42.5839C21.9545 42.9617 21.8849 43.3694 21.8849 43.8069C21.8849 44.2444 21.9545 44.6506 22.0938 45.0256C22.233 45.4006 22.4474 45.7032 22.7372 45.9333C23.027 46.1634 23.3963 46.2785 23.8452 46.2785ZM29.2837 44.6592L29.2667 43.4149H29.4712L32.3349 40.5001H33.5792L30.5281 43.5853H30.4428L29.2837 44.6592ZM28.3462 47.0455V38.3183H29.3519V47.0455H28.3462ZM32.5053 47.0455L29.9485 43.8069L30.6644 43.108L33.7837 47.0455H32.5053ZM36.7997 47.1989C36.3849 47.1989 36.0085 47.1208 35.6705 46.9646C35.3324 46.8055 35.0639 46.5768 34.8651 46.2785C34.6662 45.9774 34.5668 45.6137 34.5668 45.1876C34.5668 44.8126 34.6406 44.5086 34.7884 44.2756C34.9361 44.0399 35.1335 43.8552 35.3807 43.7217C35.6278 43.5881 35.9006 43.4887 36.1989 43.4234C36.5 43.3552 36.8026 43.3012 37.1065 43.2614C37.5043 43.2103 37.8267 43.172 38.0739 43.1464C38.3239 43.118 38.5057 43.0711 38.6193 43.0058C38.7358 42.9404 38.794 42.8268 38.794 42.6649V42.6308C38.794 42.2103 38.679 41.8836 38.4489 41.6506C38.2216 41.4177 37.8764 41.3012 37.4134 41.3012C36.9332 41.3012 36.5568 41.4063 36.2841 41.6166C36.0114 41.8268 35.8196 42.0512 35.7088 42.2899L34.7543 41.9489C34.9247 41.5512 35.152 41.2416 35.4361 41.02C35.723 40.7955 36.0355 40.6393 36.3736 40.5512C36.7145 40.4603 37.0497 40.4149 37.3793 40.4149C37.5895 40.4149 37.831 40.4404 38.1037 40.4916C38.3793 40.5398 38.6449 40.6407 38.9006 40.7941C39.1591 40.9475 39.3736 41.1791 39.544 41.4887C39.7145 41.7984 39.7997 42.2131 39.7997 42.733V47.0455H38.794V46.1592H38.7429C38.6747 46.3012 38.5611 46.4532 38.402 46.6151C38.2429 46.7771 38.0313 46.9149 37.767 47.0285C37.5028 47.1421 37.1804 47.1989 36.7997 47.1989ZM36.9531 46.2955C37.3509 46.2955 37.6861 46.2174 37.9588 46.0612C38.2344 45.9049 38.4418 45.7032 38.581 45.456C38.723 45.2089 38.794 44.9489 38.794 44.6762V43.7558C38.7514 43.8069 38.6577 43.8538 38.5128 43.8964C38.3707 43.9362 38.206 43.9717 38.0185 44.0029C37.8338 44.0313 37.6534 44.0569 37.4773 44.0796C37.304 44.0995 37.1634 44.1166 37.0554 44.1308C36.794 44.1649 36.5497 44.2202 36.3224 44.297C36.098 44.3708 35.9162 44.483 35.777 44.6336C35.6406 44.7813 35.5724 44.983 35.5724 45.2387C35.5724 45.5881 35.7017 45.8524 35.9602 46.0313C36.2216 46.2075 36.5526 46.2955 36.9531 46.2955ZM44.4819 40.5001V41.3524H41.0898V40.5001H44.4819ZM42.0785 38.9319H43.0842V45.1705C43.0842 45.4546 43.1254 45.6677 43.2077 45.8097C43.293 45.9489 43.4009 46.0427 43.5316 46.091C43.6651 46.1364 43.8058 46.1592 43.9535 46.1592C44.0643 46.1592 44.1552 46.1535 44.2262 46.1421C44.2972 46.1279 44.354 46.1166 44.3967 46.108L44.6012 47.0114C44.533 47.037 44.4379 47.0626 44.3157 47.0881C44.1935 47.1166 44.0387 47.1308 43.8512 47.1308C43.5671 47.1308 43.2887 47.0697 43.016 46.9475C42.7461 46.8254 42.5217 46.6393 42.3427 46.3893C42.1665 46.1393 42.0785 45.8239 42.0785 45.4433V38.9319ZM52.0799 47.1649C51.5799 47.1649 51.1296 47.0654 50.729 46.8666C50.3285 46.6677 50.0075 46.395 49.766 46.0484C49.5245 45.7018 49.3924 45.3069 49.3697 44.8637H50.3924C50.4322 45.2586 50.6112 45.5853 50.9293 45.8438C51.2504 46.0995 51.6339 46.2274 52.0799 46.2274C52.4379 46.2274 52.756 46.1435 53.0344 45.9759C53.3157 45.8083 53.5359 45.5782 53.695 45.2856C53.8569 44.9901 53.9379 44.6563 53.9379 44.2842C53.9379 43.9035 53.854 43.564 53.6864 43.2657C53.5217 42.9646 53.2944 42.7274 53.0046 42.5541C52.7148 42.3808 52.3839 42.2927 52.0117 42.2899C51.7447 42.287 51.4705 42.3282 51.1893 42.4134C50.908 42.4958 50.6765 42.6024 50.4947 42.733L49.506 42.6137L50.0344 38.3183H54.5685V39.2558H50.9208L50.614 41.8296H50.6651C50.8441 41.6876 51.0685 41.5697 51.3384 41.4759C51.6083 41.3822 51.8896 41.3353 52.1822 41.3353C52.7163 41.3353 53.1921 41.4631 53.6097 41.7188C54.0302 41.9717 54.3597 42.3183 54.5984 42.7586C54.8398 43.1989 54.9606 43.7018 54.9606 44.2671C54.9606 44.8239 54.8356 45.3211 54.5856 45.7586C54.3384 46.1933 53.9975 46.537 53.5629 46.7899C53.1282 47.0399 52.6339 47.1649 52.0799 47.1649ZM59.5 47.1649C58.858 47.1649 58.3111 46.9901 57.8594 46.6407C57.4077 46.2884 57.0625 45.7785 56.8239 45.1109C56.5852 44.4404 56.4659 43.6308 56.4659 42.6819C56.4659 41.7387 56.5852 40.9333 56.8239 40.2657C57.0653 39.5952 57.4119 39.0839 57.8636 38.7316C58.3182 38.3765 58.8636 38.1989 59.5 38.1989C60.1364 38.1989 60.6804 38.3765 61.1321 38.7316C61.5866 39.0839 61.9332 39.5952 62.1719 40.2657C62.4134 40.9333 62.5341 41.7387 62.5341 42.6819C62.5341 43.6308 62.4148 44.4404 62.1761 45.1109C61.9375 45.7785 61.5923 46.2884 61.1406 46.6407C60.6889 46.9901 60.142 47.1649 59.5 47.1649ZM59.5 46.2274C60.1364 46.2274 60.6307 45.9205 60.983 45.3069C61.3352 44.6933 61.5114 43.8183 61.5114 42.6819C61.5114 41.9262 61.4304 41.2827 61.2685 40.7515C61.1094 40.2202 60.8793 39.8154 60.5781 39.537C60.2798 39.2586 59.9205 39.1194 59.5 39.1194C58.8693 39.1194 58.3764 39.4305 58.0213 40.0526C57.6662 40.672 57.4886 41.5484 57.4886 42.6819C57.4886 43.4376 57.5682 44.0796 57.7273 44.608C57.8864 45.1364 58.1151 45.5384 58.4134 45.814C58.7145 46.0896 59.0767 46.2274 59.5 46.2274ZM68.6023 45.4092V44.9489C68.6023 44.6308 68.6676 44.3396 68.7983 44.0754C68.9318 43.8083 69.125 43.5952 69.3778 43.4362C69.6335 43.2742 69.9432 43.1933 70.3068 43.1933C70.6761 43.1933 70.9858 43.2742 71.2358 43.4362C71.4858 43.5952 71.6747 43.8083 71.8026 44.0754C71.9304 44.3396 71.9943 44.6308 71.9943 44.9489V45.4092C71.9943 45.7274 71.929 46.02 71.7983 46.287C71.6705 46.5512 71.4801 46.7643 71.2273 46.9262C70.9773 47.0853 70.6705 47.1649 70.3068 47.1649C69.9375 47.1649 69.6264 47.0853 69.3736 46.9262C69.1207 46.7643 68.929 46.5512 68.7983 46.287C68.6676 46.02 68.6023 45.7274 68.6023 45.4092ZM69.4716 44.9489V45.4092C69.4716 45.6734 69.5341 45.9106 69.6591 46.1208C69.7841 46.3282 70 46.4319 70.3068 46.4319C70.6051 46.4319 70.8153 46.3282 70.9375 46.1208C71.0625 45.9106 71.125 45.6734 71.125 45.4092V44.9489C71.125 44.6847 71.0653 44.4489 70.946 44.2416C70.8267 44.0313 70.6136 43.9262 70.3068 43.9262C70.0085 43.9262 69.794 44.0313 69.6634 44.2416C69.5355 44.4489 69.4716 44.6847 69.4716 44.9489ZM64.2557 40.4149V39.9546C64.2557 39.6364 64.321 39.3452 64.4517 39.081C64.5852 38.814 64.7784 38.6009 65.0312 38.4418C65.2869 38.2799 65.5966 38.1989 65.9602 38.1989C66.3295 38.1989 66.6392 38.2799 66.8892 38.4418C67.1392 38.6009 67.3281 38.814 67.456 39.081C67.5838 39.3452 67.6477 39.6364 67.6477 39.9546V40.4149C67.6477 40.733 67.5824 41.0256 67.4517 41.2927C67.3239 41.5569 67.1335 41.77 66.8807 41.9319C66.6307 42.091 66.3239 42.1705 65.9602 42.1705C65.5909 42.1705 65.2798 42.091 65.027 41.9319C64.7741 41.77 64.5824 41.5569 64.4517 41.2927C64.321 41.0256 64.2557 40.733 64.2557 40.4149ZM65.125 39.9546V40.4149C65.125 40.6791 65.1875 40.9163 65.3125 41.1265C65.4375 41.3339 65.6534 41.4376 65.9602 41.4376C66.2585 41.4376 66.4688 41.3339 66.5909 41.1265C66.7159 40.9163 66.7784 40.6791 66.7784 40.4149V39.9546C66.7784 39.6904 66.7188 39.4546 66.5994 39.2472C66.4801 39.037 66.267 38.9319 65.9602 38.9319C65.6619 38.9319 65.4474 39.037 65.3168 39.2472C65.1889 39.4546 65.125 39.6904 65.125 39.9546ZM64.5795 47.0455L70.5795 38.3183H71.5511L65.5511 47.0455H64.5795Z" fill="#03045E"/>
<path d="M13.5178 47.0455V38.3183H16.5689C17.1768 38.3183 17.6783 38.4234 18.0732 38.6336C18.468 38.841 18.7621 39.1208 18.9553 39.4731C19.1484 39.8225 19.245 40.2103 19.245 40.6364C19.245 41.0114 19.1783 41.3211 19.0447 41.5654C18.9141 41.8097 18.7408 42.0029 18.5249 42.145C18.3118 42.287 18.0803 42.3921 17.8303 42.4603V42.5455C18.0973 42.5626 18.3658 42.6563 18.6357 42.8268C18.9055 42.9972 19.1314 43.2416 19.3132 43.5597C19.495 43.8779 19.5859 44.2671 19.5859 44.7274C19.5859 45.1649 19.4865 45.5583 19.2876 45.9077C19.0888 46.2572 18.7749 46.5342 18.3459 46.7387C17.9169 46.9433 17.3587 47.0455 16.6712 47.0455H13.5178ZM14.5746 46.108H16.6712C17.3615 46.108 17.8516 45.9745 18.1413 45.7075C18.4339 45.4376 18.5803 45.1109 18.5803 44.7274C18.5803 44.4319 18.505 44.1592 18.3544 43.9092C18.2038 43.6563 17.9893 43.4546 17.7109 43.3041C17.4325 43.1506 17.103 43.0739 16.7223 43.0739H14.5746V46.108ZM14.5746 42.1535H16.5348C16.853 42.1535 17.1399 42.091 17.3956 41.966C17.6541 41.841 17.8587 41.6649 18.0092 41.4376C18.1626 41.2103 18.2393 40.9433 18.2393 40.6364C18.2393 40.2529 18.1058 39.9276 17.8388 39.6606C17.5717 39.3907 17.1484 39.2558 16.5689 39.2558H14.5746V42.1535ZM23.8452 47.1819C23.2543 47.1819 22.7358 47.0413 22.2898 46.76C21.8466 46.4788 21.5 46.0853 21.25 45.5796C21.0028 45.0739 20.8793 44.483 20.8793 43.8069C20.8793 43.1251 21.0028 42.5299 21.25 42.0214C21.5 41.5129 21.8466 41.118 22.2898 40.8367C22.7358 40.5555 23.2543 40.4149 23.8452 40.4149C24.4361 40.4149 24.9531 40.5555 25.3963 40.8367C25.8423 41.118 26.1889 41.5129 26.4361 42.0214C26.6861 42.5299 26.8111 43.1251 26.8111 43.8069C26.8111 44.483 26.6861 45.0739 26.4361 45.5796C26.1889 46.0853 25.8423 46.4788 25.3963 46.76C24.9531 47.0413 24.4361 47.1819 23.8452 47.1819ZM23.8452 46.2785C24.294 46.2785 24.6634 46.1634 24.9531 45.9333C25.2429 45.7032 25.4574 45.4006 25.5966 45.0256C25.7358 44.6506 25.8054 44.2444 25.8054 43.8069C25.8054 43.3694 25.7358 42.9617 25.5966 42.5839C25.4574 42.206 25.2429 41.9006 24.9531 41.6677C24.6634 41.4347 24.294 41.3183 23.8452 41.3183C23.3963 41.3183 23.027 41.4347 22.7372 41.6677C22.4474 41.9006 22.233 42.206 22.0938 42.5839C21.9545 42.9617 21.8849 43.3694 21.8849 43.8069C21.8849 44.2444 21.9545 44.6506 22.0938 45.0256C22.233 45.4006 22.4474 45.7032 22.7372 45.9333C23.027 46.1634 23.3963 46.2785 23.8452 46.2785ZM29.2837 44.6592L29.2667 43.4149H29.4712L32.3349 40.5001H33.5792L30.5281 43.5853H30.4428L29.2837 44.6592ZM28.3462 47.0455V38.3183H29.3519V47.0455H28.3462ZM32.5053 47.0455L29.9485 43.8069L30.6644 43.108L33.7837 47.0455H32.5053ZM36.7997 47.1989C36.3849 47.1989 36.0085 47.1208 35.6705 46.9646C35.3324 46.8055 35.0639 46.5768 34.8651 46.2785C34.6662 45.9774 34.5668 45.6137 34.5668 45.1876C34.5668 44.8126 34.6406 44.5086 34.7884 44.2756C34.9361 44.0399 35.1335 43.8552 35.3807 43.7217C35.6278 43.5881 35.9006 43.4887 36.1989 43.4234C36.5 43.3552 36.8026 43.3012 37.1065 43.2614C37.5043 43.2103 37.8267 43.172 38.0739 43.1464C38.3239 43.118 38.5057 43.0711 38.6193 43.0058C38.7358 42.9404 38.794 42.8268 38.794 42.6649V42.6308C38.794 42.2103 38.679 41.8836 38.4489 41.6506C38.2216 41.4177 37.8764 41.3012 37.4134 41.3012C36.9332 41.3012 36.5568 41.4063 36.2841 41.6166C36.0114 41.8268 35.8196 42.0512 35.7088 42.2899L34.7543 41.9489C34.9247 41.5512 35.152 41.2416 35.4361 41.02C35.723 40.7955 36.0355 40.6393 36.3736 40.5512C36.7145 40.4603 37.0497 40.4149 37.3793 40.4149C37.5895 40.4149 37.831 40.4404 38.1037 40.4916C38.3793 40.5398 38.6449 40.6407 38.9006 40.7941C39.1591 40.9475 39.3736 41.1791 39.544 41.4887C39.7145 41.7984 39.7997 42.2131 39.7997 42.733V47.0455H38.794V46.1592H38.7429C38.6747 46.3012 38.5611 46.4532 38.402 46.6151C38.2429 46.7771 38.0313 46.9149 37.767 47.0285C37.5028 47.1421 37.1804 47.1989 36.7997 47.1989ZM36.9531 46.2955C37.3509 46.2955 37.6861 46.2174 37.9588 46.0612C38.2344 45.9049 38.4418 45.7032 38.581 45.456C38.723 45.2089 38.794 44.9489 38.794 44.6762V43.7558C38.7514 43.8069 38.6577 43.8538 38.5128 43.8964C38.3707 43.9362 38.206 43.9717 38.0185 44.0029C37.8338 44.0313 37.6534 44.0569 37.4773 44.0796C37.304 44.0995 37.1634 44.1166 37.0554 44.1308C36.794 44.1649 36.5497 44.2202 36.3224 44.297C36.098 44.3708 35.9162 44.483 35.777 44.6336C35.6406 44.7813 35.5724 44.983 35.5724 45.2387C35.5724 45.5881 35.7017 45.8524 35.9602 46.0313C36.2216 46.2075 36.5526 46.2955 36.9531 46.2955ZM44.4819 40.5001V41.3524H41.0898V40.5001H44.4819ZM42.0785 38.9319H43.0842V45.1705C43.0842 45.4546 43.1254 45.6677 43.2077 45.8097C43.293 45.9489 43.4009 46.0427 43.5316 46.091C43.6651 46.1364 43.8058 46.1592 43.9535 46.1592C44.0643 46.1592 44.1552 46.1535 44.2262 46.1421C44.2972 46.1279 44.354 46.1166 44.3967 46.108L44.6012 47.0114C44.533 47.037 44.4379 47.0626 44.3157 47.0881C44.1935 47.1166 44.0387 47.1308 43.8512 47.1308C43.5671 47.1308 43.2887 47.0697 43.016 46.9475C42.7461 46.8254 42.5217 46.6393 42.3427 46.3893C42.1665 46.1393 42.0785 45.8239 42.0785 45.4433V38.9319ZM52.0799 47.1649C51.5799 47.1649 51.1296 47.0654 50.729 46.8666C50.3285 46.6677 50.0075 46.395 49.766 46.0484C49.5245 45.7018 49.3924 45.3069 49.3697 44.8637H50.3924C50.4322 45.2586 50.6112 45.5853 50.9293 45.8438C51.2504 46.0995 51.6339 46.2274 52.0799 46.2274C52.4379 46.2274 52.756 46.1435 53.0344 45.9759C53.3157 45.8083 53.5359 45.5782 53.695 45.2856C53.8569 44.9901 53.9379 44.6563 53.9379 44.2842C53.9379 43.9035 53.854 43.564 53.6864 43.2657C53.5217 42.9646 53.2944 42.7274 53.0046 42.5541C52.7148 42.3808 52.3839 42.2927 52.0117 42.2899C51.7447 42.287 51.4705 42.3282 51.1893 42.4134C50.908 42.4958 50.6765 42.6024 50.4947 42.733L49.506 42.6137L50.0344 38.3183H54.5685V39.2558H50.9208L50.614 41.8296H50.6651C50.8441 41.6876 51.0685 41.5697 51.3384 41.4759C51.6083 41.3822 51.8896 41.3353 52.1822 41.3353C52.7163 41.3353 53.1921 41.4631 53.6097 41.7188C54.0302 41.9717 54.3597 42.3183 54.5984 42.7586C54.8398 43.1989 54.9606 43.7018 54.9606 44.2671C54.9606 44.8239 54.8356 45.3211 54.5856 45.7586C54.3384 46.1933 53.9975 46.537 53.5629 46.7899C53.1282 47.0399 52.6339 47.1649 52.0799 47.1649ZM59.5 47.1649C58.858 47.1649 58.3111 46.9901 57.8594 46.6407C57.4077 46.2884 57.0625 45.7785 56.8239 45.1109C56.5852 44.4404 56.4659 43.6308 56.4659 42.6819C56.4659 41.7387 56.5852 40.9333 56.8239 40.2657C57.0653 39.5952 57.4119 39.0839 57.8636 38.7316C58.3182 38.3765 58.8636 38.1989 59.5 38.1989C60.1364 38.1989 60.6804 38.3765 61.1321 38.7316C61.5866 39.0839 61.9332 39.5952 62.1719 40.2657C62.4134 40.9333 62.5341 41.7387 62.5341 42.6819C62.5341 43.6308 62.4148 44.4404 62.1761 45.1109C61.9375 45.7785 61.5923 46.2884 61.1406 46.6407C60.6889 46.9901 60.142 47.1649 59.5 47.1649ZM59.5 46.2274C60.1364 46.2274 60.6307 45.9205 60.983 45.3069C61.3352 44.6933 61.5114 43.8183 61.5114 42.6819C61.5114 41.9262 61.4304 41.2827 61.2685 40.7515C61.1094 40.2202 60.8793 39.8154 60.5781 39.537C60.2798 39.2586 59.9205 39.1194 59.5 39.1194C58.8693 39.1194 58.3764 39.4305 58.0213 40.0526C57.6662 40.672 57.4886 41.5484 57.4886 42.6819C57.4886 43.4376 57.5682 44.0796 57.7273 44.608C57.8864 45.1364 58.1151 45.5384 58.4134 45.814C58.7145 46.0896 59.0767 46.2274 59.5 46.2274ZM68.6023 45.4092V44.9489C68.6023 44.6308 68.6676 44.3396 68.7983 44.0754C68.9318 43.8083 69.125 43.5952 69.3778 43.4362C69.6335 43.2742 69.9432 43.1933 70.3068 43.1933C70.6761 43.1933 70.9858 43.2742 71.2358 43.4362C71.4858 43.5952 71.6747 43.8083 71.8026 44.0754C71.9304 44.3396 71.9943 44.6308 71.9943 44.9489V45.4092C71.9943 45.7274 71.929 46.02 71.7983 46.287C71.6705 46.5512 71.4801 46.7643 71.2273 46.9262C70.9773 47.0853 70.6705 47.1649 70.3068 47.1649C69.9375 47.1649 69.6264 47.0853 69.3736 46.9262C69.1207 46.7643 68.929 46.5512 68.7983 46.287C68.6676 46.02 68.6023 45.7274 68.6023 45.4092ZM69.4716 44.9489V45.4092C69.4716 45.6734 69.5341 45.9106 69.6591 46.1208C69.7841 46.3282 70 46.4319 70.3068 46.4319C70.6051 46.4319 70.8153 46.3282 70.9375 46.1208C71.0625 45.9106 71.125 45.6734 71.125 45.4092V44.9489C71.125 44.6847 71.0653 44.4489 70.946 44.2416C70.8267 44.0313 70.6136 43.9262 70.3068 43.9262C70.0085 43.9262 69.794 44.0313 69.6634 44.2416C69.5355 44.4489 69.4716 44.6847 69.4716 44.9489ZM64.2557 40.4149V39.9546C64.2557 39.6364 64.321 39.3452 64.4517 39.081C64.5852 38.814 64.7784 38.6009 65.0312 38.4418C65.2869 38.2799 65.5966 38.1989 65.9602 38.1989C66.3295 38.1989 66.6392 38.2799 66.8892 38.4418C67.1392 38.6009 67.3281 38.814 67.456 39.081C67.5838 39.3452 67.6477 39.6364 67.6477 39.9546V40.4149C67.6477 40.733 67.5824 41.0256 67.4517 41.2927C67.3239 41.5569 67.1335 41.77 66.8807 41.9319C66.6307 42.091 66.3239 42.1705 65.9602 42.1705C65.5909 42.1705 65.2798 42.091 65.027 41.9319C64.7741 41.77 64.5824 41.5569 64.4517 41.2927C64.321 41.0256 64.2557 40.733 64.2557 40.4149ZM65.125 39.9546V40.4149C65.125 40.6791 65.1875 40.9163 65.3125 41.1265C65.4375 41.3339 65.6534 41.4376 65.9602 41.4376C66.2585 41.4376 66.4688 41.3339 66.5909 41.1265C66.7159 40.9163 66.7784 40.6791 66.7784 40.4149V39.9546C66.7784 39.6904 66.7188 39.4546 66.5994 39.2472C66.4801 39.037 66.267 38.9319 65.9602 38.9319C65.6619 38.9319 65.4474 39.037 65.3168 39.2472C65.1889 39.4546 65.125 39.6904 65.125 39.9546ZM64.5795 47.0455L70.5795 38.3183H71.5511L65.5511 47.0455H64.5795Z" fill="black" fill-opacity="0.2"/>
</svg>
