<svg width="154" height="182" viewBox="0 0 154 182" fill="none" xmlns="http://www.w3.org/2000/svg">
<path d="M153.23 78.7306C153.23 65.5491 149.927 52.5849 143.631 41.0616C137.335 29.5382 128.255 19.8358 117.248 12.87C106.24 5.90416 93.6682 1.90465 80.7185 1.2489C67.7688 0.593152 54.8682 3.30281 43.2344 9.12213L76.4041 77.6597C76.5831 77.5702 76.7816 77.5285 76.9808 77.5386C77.18 77.5487 77.3734 77.6102 77.5428 77.7174C77.7121 77.8245 77.8518 77.9738 77.9487 78.1511C78.0455 78.3284 78.0964 78.5278 78.0964 78.7306H153.23Z" fill="#00FF73"/>
<path d="M153.23 78.7306C153.23 65.5491 149.927 52.5849 143.631 41.0616C137.335 29.5382 128.255 19.8358 117.248 12.87C106.24 5.90416 93.6682 1.90465 80.7185 1.2489C67.7688 0.593152 54.8682 3.30281 43.2344 9.12213L76.4041 77.6597C76.5831 77.5702 76.7816 77.5285 76.9808 77.5386C77.18 77.5487 77.3734 77.6102 77.5428 77.7174C77.7121 77.8245 77.8518 77.9738 77.9487 78.1511C78.0455 78.3284 78.0964 78.5278 78.0964 78.7306H153.23Z" stroke="#03045E"/>
<path d="M153.23 78.7306C153.23 65.5491 149.927 52.5849 143.631 41.0616C137.335 29.5382 128.255 19.8358 117.248 12.87C106.24 5.90416 93.6682 1.90465 80.7185 1.2489C67.7688 0.593152 54.8682 3.30281 43.2344 9.12213L76.4041 77.6597C76.5831 77.5702 76.7816 77.5285 76.9808 77.5386C77.18 77.5487 77.3734 77.6102 77.5428 77.7174C77.7121 77.8245 77.8518 77.9738 77.9487 78.1511C78.0455 78.3284 78.0964 78.5278 78.0964 78.7306H153.23Z" stroke="black" stroke-opacity="0.2"/>
<path d="M43.2342 9.12213C30.082 15.7009 19.0719 25.9916 11.5203 38.7636C3.96878 51.5357 0.195321 66.2486 0.65118 81.1433L75.7488 78.7677C75.7418 78.5386 75.7998 78.3122 75.916 78.1157C76.0322 77.9192 76.2016 77.7609 76.4039 77.6597L43.2342 9.12213Z" fill="#E9E7E7"/>
<path d="M43.2342 9.12213C30.082 15.7009 19.0719 25.9916 11.5203 38.7636C3.96878 51.5357 0.195321 66.2486 0.65118 81.1433L75.7488 78.7677C75.7418 78.5386 75.7998 78.3122 75.916 78.1157C76.0322 77.9192 76.2016 77.7609 76.4039 77.6597L43.2342 9.12213Z" stroke="#03045E"/>
<path d="M43.2342 9.12213C30.082 15.7009 19.0719 25.9916 11.5203 38.7636C3.96878 51.5357 0.195321 66.2486 0.65118 81.1433L75.7488 78.7677C75.7418 78.5386 75.7998 78.3122 75.916 78.1157C76.0322 77.9192 76.2016 77.7609 76.4039 77.6597L43.2342 9.12213Z" stroke="black" stroke-opacity="0.2"/>
<path d="M38.2217 145.591C49.8122 152.525 62.9995 156.222 76.4477 156.307C89.896 156.392 103.127 152.862 114.802 146.075C126.477 139.288 136.179 129.485 142.928 117.659C149.676 105.832 153.23 92.4028 153.23 78.7305H78.0964C78.0964 78.9409 78.0417 79.1475 77.9379 79.3294C77.8341 79.5114 77.6848 79.6622 77.5052 79.7666C77.3256 79.871 77.122 79.9253 76.9151 79.924C76.7082 79.9227 76.5054 79.8658 76.327 79.7591L38.2217 145.591Z" fill="#FFB200"/>
<path d="M38.2217 145.591C49.8122 152.525 62.9995 156.222 76.4477 156.307C89.896 156.392 103.127 152.862 114.802 146.075C126.477 139.288 136.179 129.485 142.928 117.659C149.676 105.832 153.23 92.4028 153.23 78.7305H78.0964C78.0964 78.9409 78.0417 79.1475 77.9379 79.3294C77.8341 79.5114 77.6848 79.6622 77.5052 79.7666C77.3256 79.871 77.122 79.9253 76.9151 79.924C76.7082 79.9227 76.5054 79.8658 76.327 79.7591L38.2217 145.591Z" stroke="#03045E"/>
<path d="M38.2217 145.591C49.8122 152.525 62.9995 156.222 76.4477 156.307C89.896 156.392 103.127 152.862 114.802 146.075C126.477 139.288 136.179 129.485 142.928 117.659C149.676 105.832 153.23 92.4028 153.23 78.7305H78.0964C78.0964 78.9409 78.0417 79.1475 77.9379 79.3294C77.8341 79.5114 77.6848 79.6622 77.5052 79.7666C77.3256 79.871 77.122 79.9253 76.9151 79.924C76.7082 79.9227 76.5054 79.8658 76.327 79.7591L38.2217 145.591Z" stroke="black" stroke-opacity="0.2"/>
<path d="M38.356 145.857C51.0242 153.354 65.5481 156.982 80.191 156.309C94.834 155.635 108.976 150.689 120.927 142.06L77.4227 79.7833C77.2388 79.916 77.0213 79.9922 76.796 80.0025C76.5707 80.0129 76.3473 79.957 76.1524 79.8417L38.356 145.857Z" fill="#FF0000"/>
<path d="M38.356 145.857C51.0242 153.354 65.5481 156.982 80.191 156.309C94.834 155.635 108.976 150.689 120.927 142.06L77.4227 79.7833C77.2388 79.916 77.0213 79.9922 76.796 80.0025C76.5707 80.0129 76.3473 79.957 76.1524 79.8417L38.356 145.857Z" stroke="#03045E"/>
<path d="M38.356 145.857C51.0242 153.354 65.5481 156.982 80.191 156.309C94.834 155.635 108.976 150.689 120.927 142.06L77.4227 79.7833C77.2388 79.916 77.0213 79.9922 76.796 80.0025C76.5707 80.0129 76.3473 79.957 76.1524 79.8417L38.356 145.857Z" stroke="black" stroke-opacity="0.2"/>
</svg>
