<svg width="50" height="51" viewBox="0 0 50 51" fill="none" xmlns="http://www.w3.org/2000/svg">
<path d="M26 33.7445L25 0.195312L26 33.7445Z" fill="#03045E"/>
<path d="M26 33.7445L25 0.195312L26 33.7445Z" fill="black" fill-opacity="0.2"/>
<path d="M26 33.7445L25 0.195312" stroke="#03045E"/>
<path d="M26 33.7445L25 0.195312" stroke="black" stroke-opacity="0.2"/>
<path d="M1.40447 46.7611V38.0338H6.63743V38.9713H2.46129V41.9202H6.24538V42.8577H2.46129V46.7611H1.40447ZM8.24077 46.7611V40.2157H9.21236V41.2043H9.28054C9.39986 40.8804 9.61577 40.6176 9.92827 40.4159C10.2408 40.2142 10.593 40.1134 10.9851 40.1134C11.0589 40.1134 11.1513 40.1148 11.2621 40.1176C11.3729 40.1205 11.4567 40.1247 11.5135 40.1304V41.1532C11.4794 41.1446 11.4013 41.1318 11.2791 41.1148C11.1598 41.0949 11.0334 41.085 10.8999 41.085C10.5817 41.085 10.2976 41.1517 10.0476 41.2853C9.80043 41.4159 9.6044 41.5978 9.45952 41.8307C9.31747 42.0608 9.24645 42.3236 9.24645 42.6191V46.7611H8.24077ZM14.6317 46.9145C14.217 46.9145 13.8406 46.8364 13.5025 46.6801C13.1644 46.5211 12.896 46.2924 12.6971 45.9941C12.4982 45.6929 12.3988 45.3293 12.3988 44.9032C12.3988 44.5282 12.4727 44.2242 12.6204 43.9912C12.7681 43.7554 12.9656 43.5708 13.2127 43.4372C13.4599 43.3037 13.7326 43.2043 14.0309 43.1389C14.332 43.0708 14.6346 43.0168 14.9386 42.977C15.3363 42.9259 15.6587 42.8875 15.9059 42.862C16.1559 42.8336 16.3377 42.7867 16.4513 42.7213C16.5678 42.656 16.6261 42.5424 16.6261 42.3804V42.3463C16.6261 41.9259 16.511 41.5992 16.2809 41.3662C16.0536 41.1333 15.7085 41.0168 15.2454 41.0168C14.7653 41.0168 14.3888 41.1219 14.1161 41.3321C13.8434 41.5424 13.6516 41.7668 13.5408 42.0054L12.5863 41.6645C12.7567 41.2668 12.984 40.9571 13.2681 40.7355C13.555 40.5111 13.8675 40.3549 14.2056 40.2668C14.5465 40.1759 14.8817 40.1304 15.2113 40.1304C15.4215 40.1304 15.663 40.156 15.9357 40.2071C16.2113 40.2554 16.4769 40.3563 16.7326 40.5097C16.9911 40.6631 17.2056 40.8946 17.3761 41.2043C17.5465 41.5139 17.6317 41.9287 17.6317 42.4486V46.7611H16.6261V45.8747H16.5749C16.5067 46.0168 16.3931 46.1688 16.234 46.3307C16.0749 46.4926 15.8633 46.6304 15.5991 46.7441C15.3349 46.8577 15.0124 46.9145 14.6317 46.9145ZM14.7852 46.0111C15.1829 46.0111 15.5181 45.933 15.7908 45.7767C16.0664 45.6205 16.2738 45.4188 16.413 45.1716C16.555 44.9245 16.6261 44.6645 16.6261 44.3918V43.4713C16.5835 43.5225 16.4897 43.5693 16.3448 43.612C16.2028 43.6517 16.038 43.6872 15.8505 43.7185C15.6658 43.7469 15.4854 43.7725 15.3093 43.7952C15.136 43.8151 14.9954 43.8321 14.8874 43.8463C14.6261 43.8804 14.3817 43.9358 14.1545 44.0125C13.93 44.0864 13.7482 44.1986 13.609 44.3492C13.4727 44.4969 13.4045 44.6986 13.4045 44.9543C13.4045 45.3037 13.5337 45.5679 13.7923 45.7469C14.0536 45.923 14.3846 46.0111 14.7852 46.0111ZM15.2795 39.4827C14.9897 39.4827 14.7269 39.4188 14.4911 39.2909C14.2582 39.1631 14.0721 38.9898 13.9329 38.7711C13.7965 38.5523 13.7283 38.3066 13.7283 38.0338C13.7283 37.7611 13.7965 37.5111 13.9329 37.2838C14.0721 37.0566 14.2582 36.8747 14.4911 36.7384C14.7269 36.602 14.9897 36.5338 15.2795 36.5338C15.5692 36.5338 15.8292 36.602 16.0593 36.7384C16.2923 36.8747 16.4755 37.0566 16.609 37.2838C16.7454 37.5111 16.8136 37.7611 16.8136 38.0338C16.8136 38.3066 16.7454 38.5523 16.609 38.7711C16.4755 38.9898 16.2923 39.1631 16.0593 39.2909C15.8292 39.4188 15.5692 39.4827 15.2795 39.4827ZM15.2795 38.835C15.5181 38.835 15.7141 38.7526 15.8675 38.5878C16.021 38.423 16.0977 38.2384 16.0977 38.0338C16.0977 37.8208 16.021 37.629 15.8675 37.4586C15.7141 37.2853 15.5181 37.1986 15.2795 37.1986C15.0408 37.1986 14.8448 37.2853 14.6914 37.4586C14.538 37.629 14.4613 37.8208 14.4613 38.0338C14.4613 38.2384 14.538 38.423 14.6914 38.5878C14.8448 38.7526 15.0408 38.835 15.2795 38.835ZM20.473 42.8236V46.7611H19.4673V40.2157H20.4389V41.2384H20.5241C20.6776 40.906 20.9105 40.6389 21.223 40.4372C21.5355 40.2327 21.9389 40.1304 22.4332 40.1304C22.8764 40.1304 23.2642 40.2213 23.5966 40.4032C23.929 40.5821 24.1875 40.8549 24.3722 41.2213C24.5568 41.585 24.6491 42.0452 24.6491 42.602V46.7611H23.6435V42.6702C23.6435 42.156 23.5099 41.7554 23.2429 41.4685C22.9759 41.1787 22.6094 41.0338 22.1435 41.0338C21.8224 41.0338 21.5355 41.1034 21.2827 41.2426C21.0327 41.3818 20.8352 41.585 20.6903 41.852C20.5455 42.1191 20.473 42.4429 20.473 42.8236ZM31.6048 40.2157L29.1843 46.7611H28.1616L25.7411 40.2157H26.832L28.6388 45.4316H28.707L30.5138 40.2157H31.6048ZM34.6591 46.9145C34.2443 46.9145 33.8679 46.8364 33.5298 46.6801C33.1918 46.5211 32.9233 46.2924 32.7244 45.9941C32.5256 45.6929 32.4261 45.3293 32.4261 44.9032C32.4261 44.5282 32.5 44.2242 32.6477 43.9912C32.7955 43.7554 32.9929 43.5708 33.2401 43.4372C33.4872 43.3037 33.7599 43.2043 34.0582 43.1389C34.3594 43.0708 34.6619 43.0168 34.9659 42.977C35.3636 42.9259 35.6861 42.8875 35.9332 42.862C36.1832 42.8336 36.3651 42.7867 36.4787 42.7213C36.5952 42.656 36.6534 42.5424 36.6534 42.3804V42.3463C36.6534 41.9259 36.5384 41.5992 36.3082 41.3662C36.081 41.1333 35.7358 41.0168 35.2727 41.0168C34.7926 41.0168 34.4162 41.1219 34.1435 41.3321C33.8707 41.5424 33.679 41.7668 33.5682 42.0054L32.6136 41.6645C32.7841 41.2668 33.0114 40.9571 33.2955 40.7355C33.5824 40.5111 33.8949 40.3549 34.233 40.2668C34.5739 40.1759 34.9091 40.1304 35.2386 40.1304C35.4489 40.1304 35.6903 40.156 35.9631 40.2071C36.2386 40.2554 36.5043 40.3563 36.7599 40.5097C37.0185 40.6631 37.233 40.8946 37.4034 41.2043C37.5739 41.5139 37.6591 41.9287 37.6591 42.4486V46.7611H36.6534V45.8747H36.6023C36.5341 46.0168 36.4205 46.1688 36.2614 46.3307C36.1023 46.4926 35.8906 46.6304 35.6264 46.7441C35.3622 46.8577 35.0398 46.9145 34.6591 46.9145ZM34.8125 46.0111C35.2102 46.0111 35.5455 45.933 35.8182 45.7767C36.0938 45.6205 36.3011 45.4188 36.4403 45.1716C36.5824 44.9245 36.6534 44.6645 36.6534 44.3918V43.4713C36.6108 43.5225 36.517 43.5693 36.3722 43.612C36.2301 43.6517 36.0653 43.6872 35.8778 43.7185C35.6932 43.7469 35.5128 43.7725 35.3366 43.7952C35.1634 43.8151 35.0227 43.8321 34.9148 43.8463C34.6534 43.8804 34.4091 43.9358 34.1818 44.0125C33.9574 44.0864 33.7756 44.1986 33.6364 44.3492C33.5 44.4969 33.4318 44.6986 33.4318 44.9543C33.4318 45.3037 33.5611 45.5679 33.8196 45.7469C34.081 45.923 34.4119 46.0111 34.8125 46.0111ZM39.4947 46.7611V40.2157H40.4663V41.2043H40.5344C40.6538 40.8804 40.8697 40.6176 41.1822 40.4159C41.4947 40.2142 41.8469 40.1134 42.239 40.1134C42.3129 40.1134 42.4052 40.1148 42.516 40.1176C42.6268 40.1205 42.7106 40.1247 42.7674 40.1304V41.1532C42.7333 41.1446 42.6552 41.1318 42.533 41.1148C42.4137 41.0949 42.2873 41.085 42.1538 41.085C41.8356 41.085 41.5515 41.1517 41.3015 41.2853C41.0543 41.4159 40.8583 41.5978 40.7134 41.8307C40.5714 42.0608 40.5004 42.3236 40.5004 42.6191V46.7611H39.4947ZM46.4194 46.8975C45.8285 46.8975 45.31 46.7568 44.864 46.4756C44.4208 46.1943 44.0742 45.8009 43.8242 45.2952C43.5771 44.7895 43.4535 44.1986 43.4535 43.5225C43.4535 42.8407 43.5771 42.2455 43.8242 41.737C44.0742 41.2284 44.4208 40.8336 44.864 40.5523C45.31 40.2711 45.8285 40.1304 46.4194 40.1304C47.0103 40.1304 47.5273 40.2711 47.9705 40.5523C48.4165 40.8336 48.7631 41.2284 49.0103 41.737C49.2603 42.2455 49.3853 42.8407 49.3853 43.5225C49.3853 44.1986 49.2603 44.7895 49.0103 45.2952C48.7631 45.8009 48.4165 46.1943 47.9705 46.4756C47.5273 46.7568 47.0103 46.8975 46.4194 46.8975ZM46.4194 45.9941C46.8683 45.9941 47.2376 45.879 47.5273 45.6489C47.8171 45.4188 48.0316 45.1162 48.1708 44.7412C48.31 44.3662 48.3796 43.96 48.3796 43.5225C48.3796 43.085 48.31 42.6773 48.1708 42.2995C48.0316 41.9216 47.8171 41.6162 47.5273 41.3833C47.2376 41.1503 46.8683 41.0338 46.4194 41.0338C45.9705 41.0338 45.6012 41.1503 45.3114 41.3833C45.0217 41.6162 44.8072 41.9216 44.668 42.2995C44.5288 42.6773 44.4592 43.085 44.4592 43.5225C44.4592 43.96 44.5288 44.3662 44.668 44.7412C44.8072 45.1162 45.0217 45.4188 45.3114 45.6489C45.6012 45.879 45.9705 45.9941 46.4194 45.9941Z" fill="#03045E"/>
<path d="M1.40447 46.7611V38.0338H6.63743V38.9713H2.46129V41.9202H6.24538V42.8577H2.46129V46.7611H1.40447ZM8.24077 46.7611V40.2157H9.21236V41.2043H9.28054C9.39986 40.8804 9.61577 40.6176 9.92827 40.4159C10.2408 40.2142 10.593 40.1134 10.9851 40.1134C11.0589 40.1134 11.1513 40.1148 11.2621 40.1176C11.3729 40.1205 11.4567 40.1247 11.5135 40.1304V41.1532C11.4794 41.1446 11.4013 41.1318 11.2791 41.1148C11.1598 41.0949 11.0334 41.085 10.8999 41.085C10.5817 41.085 10.2976 41.1517 10.0476 41.2853C9.80043 41.4159 9.6044 41.5978 9.45952 41.8307C9.31747 42.0608 9.24645 42.3236 9.24645 42.6191V46.7611H8.24077ZM14.6317 46.9145C14.217 46.9145 13.8406 46.8364 13.5025 46.6801C13.1644 46.5211 12.896 46.2924 12.6971 45.9941C12.4982 45.6929 12.3988 45.3293 12.3988 44.9032C12.3988 44.5282 12.4727 44.2242 12.6204 43.9912C12.7681 43.7554 12.9656 43.5708 13.2127 43.4372C13.4599 43.3037 13.7326 43.2043 14.0309 43.1389C14.332 43.0708 14.6346 43.0168 14.9386 42.977C15.3363 42.9259 15.6587 42.8875 15.9059 42.862C16.1559 42.8336 16.3377 42.7867 16.4513 42.7213C16.5678 42.656 16.6261 42.5424 16.6261 42.3804V42.3463C16.6261 41.9259 16.511 41.5992 16.2809 41.3662C16.0536 41.1333 15.7085 41.0168 15.2454 41.0168C14.7653 41.0168 14.3888 41.1219 14.1161 41.3321C13.8434 41.5424 13.6516 41.7668 13.5408 42.0054L12.5863 41.6645C12.7567 41.2668 12.984 40.9571 13.2681 40.7355C13.555 40.5111 13.8675 40.3549 14.2056 40.2668C14.5465 40.1759 14.8817 40.1304 15.2113 40.1304C15.4215 40.1304 15.663 40.156 15.9357 40.2071C16.2113 40.2554 16.4769 40.3563 16.7326 40.5097C16.9911 40.6631 17.2056 40.8946 17.3761 41.2043C17.5465 41.5139 17.6317 41.9287 17.6317 42.4486V46.7611H16.6261V45.8747H16.5749C16.5067 46.0168 16.3931 46.1688 16.234 46.3307C16.0749 46.4926 15.8633 46.6304 15.5991 46.7441C15.3349 46.8577 15.0124 46.9145 14.6317 46.9145ZM14.7852 46.0111C15.1829 46.0111 15.5181 45.933 15.7908 45.7767C16.0664 45.6205 16.2738 45.4188 16.413 45.1716C16.555 44.9245 16.6261 44.6645 16.6261 44.3918V43.4713C16.5835 43.5225 16.4897 43.5693 16.3448 43.612C16.2028 43.6517 16.038 43.6872 15.8505 43.7185C15.6658 43.7469 15.4854 43.7725 15.3093 43.7952C15.136 43.8151 14.9954 43.8321 14.8874 43.8463C14.6261 43.8804 14.3817 43.9358 14.1545 44.0125C13.93 44.0864 13.7482 44.1986 13.609 44.3492C13.4727 44.4969 13.4045 44.6986 13.4045 44.9543C13.4045 45.3037 13.5337 45.5679 13.7923 45.7469C14.0536 45.923 14.3846 46.0111 14.7852 46.0111ZM15.2795 39.4827C14.9897 39.4827 14.7269 39.4188 14.4911 39.2909C14.2582 39.1631 14.0721 38.9898 13.9329 38.7711C13.7965 38.5523 13.7283 38.3066 13.7283 38.0338C13.7283 37.7611 13.7965 37.5111 13.9329 37.2838C14.0721 37.0566 14.2582 36.8747 14.4911 36.7384C14.7269 36.602 14.9897 36.5338 15.2795 36.5338C15.5692 36.5338 15.8292 36.602 16.0593 36.7384C16.2923 36.8747 16.4755 37.0566 16.609 37.2838C16.7454 37.5111 16.8136 37.7611 16.8136 38.0338C16.8136 38.3066 16.7454 38.5523 16.609 38.7711C16.4755 38.9898 16.2923 39.1631 16.0593 39.2909C15.8292 39.4188 15.5692 39.4827 15.2795 39.4827ZM15.2795 38.835C15.5181 38.835 15.7141 38.7526 15.8675 38.5878C16.021 38.423 16.0977 38.2384 16.0977 38.0338C16.0977 37.8208 16.021 37.629 15.8675 37.4586C15.7141 37.2853 15.5181 37.1986 15.2795 37.1986C15.0408 37.1986 14.8448 37.2853 14.6914 37.4586C14.538 37.629 14.4613 37.8208 14.4613 38.0338C14.4613 38.2384 14.538 38.423 14.6914 38.5878C14.8448 38.7526 15.0408 38.835 15.2795 38.835ZM20.473 42.8236V46.7611H19.4673V40.2157H20.4389V41.2384H20.5241C20.6776 40.906 20.9105 40.6389 21.223 40.4372C21.5355 40.2327 21.9389 40.1304 22.4332 40.1304C22.8764 40.1304 23.2642 40.2213 23.5966 40.4032C23.929 40.5821 24.1875 40.8549 24.3722 41.2213C24.5568 41.585 24.6491 42.0452 24.6491 42.602V46.7611H23.6435V42.6702C23.6435 42.156 23.5099 41.7554 23.2429 41.4685C22.9759 41.1787 22.6094 41.0338 22.1435 41.0338C21.8224 41.0338 21.5355 41.1034 21.2827 41.2426C21.0327 41.3818 20.8352 41.585 20.6903 41.852C20.5455 42.1191 20.473 42.4429 20.473 42.8236ZM31.6048 40.2157L29.1843 46.7611H28.1616L25.7411 40.2157H26.832L28.6388 45.4316H28.707L30.5138 40.2157H31.6048ZM34.6591 46.9145C34.2443 46.9145 33.8679 46.8364 33.5298 46.6801C33.1918 46.5211 32.9233 46.2924 32.7244 45.9941C32.5256 45.6929 32.4261 45.3293 32.4261 44.9032C32.4261 44.5282 32.5 44.2242 32.6477 43.9912C32.7955 43.7554 32.9929 43.5708 33.2401 43.4372C33.4872 43.3037 33.7599 43.2043 34.0582 43.1389C34.3594 43.0708 34.6619 43.0168 34.9659 42.977C35.3636 42.9259 35.6861 42.8875 35.9332 42.862C36.1832 42.8336 36.3651 42.7867 36.4787 42.7213C36.5952 42.656 36.6534 42.5424 36.6534 42.3804V42.3463C36.6534 41.9259 36.5384 41.5992 36.3082 41.3662C36.081 41.1333 35.7358 41.0168 35.2727 41.0168C34.7926 41.0168 34.4162 41.1219 34.1435 41.3321C33.8707 41.5424 33.679 41.7668 33.5682 42.0054L32.6136 41.6645C32.7841 41.2668 33.0114 40.9571 33.2955 40.7355C33.5824 40.5111 33.8949 40.3549 34.233 40.2668C34.5739 40.1759 34.9091 40.1304 35.2386 40.1304C35.4489 40.1304 35.6903 40.156 35.9631 40.2071C36.2386 40.2554 36.5043 40.3563 36.7599 40.5097C37.0185 40.6631 37.233 40.8946 37.4034 41.2043C37.5739 41.5139 37.6591 41.9287 37.6591 42.4486V46.7611H36.6534V45.8747H36.6023C36.5341 46.0168 36.4205 46.1688 36.2614 46.3307C36.1023 46.4926 35.8906 46.6304 35.6264 46.7441C35.3622 46.8577 35.0398 46.9145 34.6591 46.9145ZM34.8125 46.0111C35.2102 46.0111 35.5455 45.933 35.8182 45.7767C36.0938 45.6205 36.3011 45.4188 36.4403 45.1716C36.5824 44.9245 36.6534 44.6645 36.6534 44.3918V43.4713C36.6108 43.5225 36.517 43.5693 36.3722 43.612C36.2301 43.6517 36.0653 43.6872 35.8778 43.7185C35.6932 43.7469 35.5128 43.7725 35.3366 43.7952C35.1634 43.8151 35.0227 43.8321 34.9148 43.8463C34.6534 43.8804 34.4091 43.9358 34.1818 44.0125C33.9574 44.0864 33.7756 44.1986 33.6364 44.3492C33.5 44.4969 33.4318 44.6986 33.4318 44.9543C33.4318 45.3037 33.5611 45.5679 33.8196 45.7469C34.081 45.923 34.4119 46.0111 34.8125 46.0111ZM39.4947 46.7611V40.2157H40.4663V41.2043H40.5344C40.6538 40.8804 40.8697 40.6176 41.1822 40.4159C41.4947 40.2142 41.8469 40.1134 42.239 40.1134C42.3129 40.1134 42.4052 40.1148 42.516 40.1176C42.6268 40.1205 42.7106 40.1247 42.7674 40.1304V41.1532C42.7333 41.1446 42.6552 41.1318 42.533 41.1148C42.4137 41.0949 42.2873 41.085 42.1538 41.085C41.8356 41.085 41.5515 41.1517 41.3015 41.2853C41.0543 41.4159 40.8583 41.5978 40.7134 41.8307C40.5714 42.0608 40.5004 42.3236 40.5004 42.6191V46.7611H39.4947ZM46.4194 46.8975C45.8285 46.8975 45.31 46.7568 44.864 46.4756C44.4208 46.1943 44.0742 45.8009 43.8242 45.2952C43.5771 44.7895 43.4535 44.1986 43.4535 43.5225C43.4535 42.8407 43.5771 42.2455 43.8242 41.737C44.0742 41.2284 44.4208 40.8336 44.864 40.5523C45.31 40.2711 45.8285 40.1304 46.4194 40.1304C47.0103 40.1304 47.5273 40.2711 47.9705 40.5523C48.4165 40.8336 48.7631 41.2284 49.0103 41.737C49.2603 42.2455 49.3853 42.8407 49.3853 43.5225C49.3853 44.1986 49.2603 44.7895 49.0103 45.2952C48.7631 45.8009 48.4165 46.1943 47.9705 46.4756C47.5273 46.7568 47.0103 46.8975 46.4194 46.8975ZM46.4194 45.9941C46.8683 45.9941 47.2376 45.879 47.5273 45.6489C47.8171 45.4188 48.0316 45.1162 48.1708 44.7412C48.31 44.3662 48.3796 43.96 48.3796 43.5225C48.3796 43.085 48.31 42.6773 48.1708 42.2995C48.0316 41.9216 47.8171 41.6162 47.5273 41.3833C47.2376 41.1503 46.8683 41.0338 46.4194 41.0338C45.9705 41.0338 45.6012 41.1503 45.3114 41.3833C45.0217 41.6162 44.8072 41.9216 44.668 42.2995C44.5288 42.6773 44.4592 43.085 44.4592 43.5225C44.4592 43.96 44.5288 44.3662 44.668 44.7412C44.8072 45.1162 45.0217 45.4188 45.3114 45.6489C45.6012 45.879 45.9705 45.9941 46.4194 45.9941Z" fill="black" fill-opacity="0.2"/>
</svg>
