<svg width="78" height="69" viewBox="0 0 78 69" fill="none" xmlns="http://www.w3.org/2000/svg">
<path d="M0.666016 3.07098C1.06675 16.1645 4.72233 28.9416 11.2919 40.2109C17.8614 51.4803 27.131 60.8748 38.2362 67.5186L76.3416 1.68694C76.1707 1.58473 76.0282 1.44019 75.9271 1.26682C75.826 1.09344 75.7698 0.896873 75.7636 0.695435L0.666016 3.07098Z" stroke="#03045E" stroke-dasharray="5 5"/>
<path d="M0.666016 3.07098C1.06675 16.1645 4.72233 28.9416 11.2919 40.2109C17.8614 51.4803 27.131 60.8748 38.2362 67.5186L76.3416 1.68694C76.1707 1.58473 76.0282 1.44019 75.9271 1.26682C75.826 1.09344 75.7698 0.896873 75.7636 0.695435L0.666016 3.07098Z" stroke="black" stroke-opacity="0.2" stroke-dasharray="5 5"/>
</svg>
